<svg width="1098" height="634" viewBox="0 0 1098 634" fill="none" xmlns="http://www.w3.org/2000/svg">
<path d="M1078.25 337.6C1030.68 233.472 965.101 274 901.508 245.042C901.508 245.042 851.952 272.81 621.797 245.042C391.642 217.275 334.383 119.562 224.508 217C141.842 290.308 224.508 388.5 75.0078 419.5C-55.54 446.57 -144.382 750.594 965.101 583.458C1078.25 566.413 1126.82 443.911 1078.25 337.6Z" fill="#F2ECFF"/>
<g clip-path="url(#clip0)">
<path d="M990 222.295V343.076H335.308V257.031C347.419 210.486 369.212 167.016 399.265 129.458L856.216 55.8862C870.026 64.9253 883.169 74.9419 895.546 85.8588L624.671 189.141L924.552 114.637C936.848 128.372 948.023 143.069 957.97 158.588L896.769 204.327L965.919 171.614C972.318 182.649 978.098 194.031 983.232 205.708C985.629 211.168 987.885 216.697 990 222.295Z" fill="#F2F2F2"/>
<path d="M818.815 34.6496C771.901 11.7777 720.376 -0.0739003 668.179 -3.06372e-05C561.944 -3.06372e-05 466.964 48.1498 403.878 123.803C511.906 100.144 699.993 59.188 818.815 34.6496Z" fill="#F2F2F2"/>
<path d="M990 226.458V435.576H340.349C338.816 434.687 337.544 433.411 336.659 431.876C335.774 430.341 335.308 428.601 335.308 426.83V253.228C335.307 246.987 336.536 240.807 338.924 235.041C341.313 229.275 344.815 224.036 349.23 219.623C353.645 215.211 358.886 211.71 364.655 209.323C370.423 206.935 376.606 205.707 382.849 205.708H969.241C974.746 205.708 980.026 207.894 983.919 211.786C987.812 215.677 990 220.955 990 226.458Z" fill="#2F2E41"/>
<path d="M925.774 426.754C925.774 418.442 921.554 411.703 916.349 411.703C913.077 411.703 910.196 414.366 908.506 418.408C907.935 418.171 907.323 418.048 906.704 418.047C905.885 418.081 905.083 418.293 904.355 418.668C903.626 419.043 902.987 419.573 902.484 420.219C900.961 415.18 897.73 411.703 893.991 411.703C890.495 411.703 887.446 414.745 885.819 419.259C884.915 418.497 883.776 418.068 882.593 418.047C878.598 418.047 875.36 423.218 875.36 429.597C875.343 431.724 875.73 433.834 876.499 435.817H923.873C925.161 432.971 925.809 429.878 925.774 426.754V426.754Z" fill="#3F3D56"/>
<path d="M445.804 422.604C445.804 410.706 441.585 401.061 436.379 401.061C433.107 401.061 430.226 404.873 428.536 410.658C427.993 410.326 427.371 410.148 426.735 410.141C425.159 410.141 423.702 411.296 422.514 413.25C420.991 406.038 417.761 401.061 414.022 401.061C410.526 401.061 407.477 405.415 405.849 411.876C405.469 411.371 404.984 410.954 404.427 410.655C403.87 410.355 403.255 410.18 402.624 410.141C398.629 410.141 395.39 417.543 395.39 426.673C395.368 429.679 395.752 432.673 396.53 435.576H443.904C445.21 431.377 445.852 427 445.804 422.604V422.604Z" fill="#3F3D56"/>
<path d="M389.175 305.8H394.009C396.205 305.807 398.309 306.682 399.862 308.234C401.415 309.786 402.29 311.889 402.296 314.084V366.546C402.296 370.391 403.824 374.078 406.544 376.797C409.264 379.515 412.953 381.042 416.799 381.042V381.042C420.645 381.042 424.334 379.515 427.054 376.797C429.774 374.078 431.302 370.391 431.302 366.546V239.532C431.308 237.337 432.183 235.234 433.736 233.682C435.289 232.13 437.393 231.255 439.589 231.249H444.423C446.619 231.255 448.723 232.13 450.276 233.682C451.829 235.234 452.704 237.337 452.71 239.532V366.546C452.71 368.45 453.086 370.335 453.814 372.094C454.543 373.853 455.612 375.451 456.958 376.797C458.305 378.143 459.904 379.211 461.663 379.939C463.423 380.668 465.309 381.042 467.213 381.042V381.042C469.118 381.042 471.004 380.668 472.763 379.939C474.523 379.211 476.121 378.143 477.468 376.797C478.815 375.451 479.883 373.853 480.612 372.094C481.341 370.335 481.716 368.45 481.716 366.546V289.233C481.722 287.038 482.597 284.935 484.15 283.383C485.703 281.831 487.807 280.956 490.003 280.95H494.837C497.033 280.956 499.137 281.831 500.69 283.383C502.243 284.935 503.118 287.038 503.125 289.233V366.546C503.125 370.391 504.652 374.078 507.372 376.797C510.092 379.515 513.781 381.042 517.627 381.042V381.042C521.474 381.042 525.162 379.515 527.882 376.797C530.602 374.078 532.13 370.391 532.13 366.546V343.076C532.136 340.881 533.011 338.778 534.564 337.226C536.117 335.674 538.221 334.799 540.417 334.793H545.251C547.447 334.799 549.551 335.674 551.104 337.226C552.657 338.778 553.532 340.881 553.539 343.076V366.546C553.539 368.45 553.914 370.335 554.643 372.094C555.371 373.853 556.44 375.451 557.786 376.797C559.133 378.143 560.732 379.211 562.491 379.939C564.251 380.668 566.137 381.042 568.041 381.042V381.042C569.946 381.042 571.832 380.668 573.591 379.939C575.351 379.211 576.95 378.143 578.296 376.797C579.643 375.451 580.711 373.853 581.44 372.094C582.169 370.335 582.544 368.45 582.544 366.546V284.401C582.55 282.206 583.426 280.103 584.978 278.551C586.531 276.999 588.635 276.124 590.831 276.118H595.665C597.861 276.124 599.966 276.999 601.518 278.551C603.071 280.103 603.946 282.206 603.953 284.401V366.546C603.953 370.391 605.481 374.078 608.2 376.797C610.92 379.515 614.609 381.043 618.455 381.043V381.043C622.302 381.043 625.99 379.515 628.71 376.797C631.43 374.078 632.958 370.391 632.958 366.546V262.312C632.964 260.117 633.84 258.014 635.392 256.462C636.945 254.91 639.049 254.035 641.245 254.028H646.079C648.275 254.035 650.38 254.91 651.932 256.462C653.485 258.014 654.36 260.117 654.367 262.312V366.546C654.367 368.45 654.742 370.335 655.471 372.094C656.199 373.853 657.268 375.451 658.614 376.797C659.961 378.143 661.56 379.211 663.319 379.939C665.079 380.668 666.965 381.042 668.869 381.042V381.042C670.774 381.042 672.66 380.668 674.419 379.939C676.179 379.211 677.778 378.143 679.124 376.797C680.471 375.451 681.539 373.853 682.268 372.094C682.997 370.335 683.372 368.45 683.372 366.546V314.084C683.378 311.889 684.254 309.786 685.806 308.234C687.359 306.682 689.463 305.807 691.659 305.8H696.493C698.689 305.807 700.794 306.682 702.346 308.234C703.899 309.786 704.774 311.889 704.781 314.084V366.546C704.781 370.391 706.309 374.078 709.028 376.797C711.748 379.515 715.437 381.042 719.283 381.042V381.042C723.13 381.042 726.819 379.515 729.538 376.797C732.258 374.078 733.786 370.391 733.786 366.546V289.233C733.792 287.038 734.668 284.935 736.22 283.383C737.773 281.831 739.877 280.956 742.073 280.95H746.908C749.103 280.956 751.208 281.831 752.76 283.383C754.313 284.935 755.188 287.038 755.195 289.233V366.546C755.195 370.391 756.723 374.078 759.442 376.797C762.162 379.515 765.851 381.042 769.697 381.042H776.171C780.13 380.988 783.907 379.369 786.675 376.54C788.219 375.003 790.309 374.14 792.487 374.14H797.322C799.5 374.14 801.59 375.003 803.134 376.54C805.902 379.369 809.679 380.988 813.638 381.042H820.112C822.016 381.042 823.902 380.668 825.661 379.939C827.421 379.211 829.02 378.143 830.366 376.797C831.713 375.451 832.781 373.853 833.51 372.094C834.239 370.335 834.614 368.45 834.614 366.546V358.953C834.621 356.758 835.496 354.655 837.049 353.103C838.601 351.551 840.706 350.676 842.902 350.67H847.736C849.932 350.676 852.036 351.551 853.589 353.103C855.141 354.655 856.017 356.758 856.023 358.953V366.546C856.023 370.391 857.551 374.078 860.271 376.797C862.99 379.515 866.679 381.042 870.526 381.042V381.042C874.372 381.042 878.061 379.515 880.781 376.797C883.5 374.078 885.028 370.391 885.028 366.546V284.401C885.035 282.206 885.91 280.103 887.463 278.551C889.015 276.999 891.12 276.124 893.316 276.118H898.15C900.346 276.124 902.45 276.999 904.003 278.551C905.555 280.103 906.431 282.206 906.437 284.401V366.546C906.437 368.45 906.812 370.335 907.541 372.094C908.27 373.853 909.338 375.451 910.685 376.797C912.031 378.143 913.63 379.211 915.39 379.939C917.149 380.668 919.035 381.042 920.94 381.042V381.042C922.844 381.042 924.73 380.668 926.49 379.939C928.249 379.211 929.848 378.143 931.195 376.797C932.541 375.451 933.61 373.853 934.338 372.094C935.067 370.335 935.442 368.45 935.442 366.546V314.084C935.449 311.889 936.324 309.786 937.877 308.234C939.43 306.682 941.534 305.807 943.73 305.8H948.564C949.742 305.803 950.906 306.056 951.978 306.545C953.05 307.033 954.005 307.745 954.779 308.632V228.61C954.779 220.888 951.71 213.483 946.248 208.023C940.785 202.563 933.377 199.495 925.652 199.495H406.005C399.343 199.495 392.955 202.14 388.244 206.848C383.534 211.557 380.888 217.943 380.888 224.601V314.084C380.894 311.889 381.769 309.786 383.322 308.234C384.875 306.682 386.979 305.807 389.175 305.8V305.8Z" fill="#3F3D56"/>
<path d="M794.334 214.987H790.277V375.172H794.334V214.987Z" fill="#2F2E41"/>
<path d="M831.776 235.404C832.004 284.367 801.907 325.363 794.331 334.903C793.233 336.277 792.612 337.002 792.612 337.002C792.612 337.002 791.748 336.021 790.277 334.171C782.342 324.211 756.693 288.985 752.964 245.669C752.936 245.365 752.909 245.061 752.888 244.758C752.653 241.796 752.527 238.798 752.508 235.763C752.488 228.322 753.126 220.893 754.414 213.563C754.477 213.156 754.552 212.756 754.621 212.348C762.771 167.583 791.672 134.166 791.672 134.166C797.734 141.421 803.179 149.17 807.95 157.332C808.074 157.539 808.199 157.746 808.316 157.953C812.014 164.193 815.35 170.639 818.309 177.261C818.42 177.488 818.516 177.716 818.613 177.944C825.823 194.256 831.679 214.046 831.776 235.404Z" fill="#7B4CDB"/>
<path d="M545.026 184.614H540.969V344.799H545.026V184.614Z" fill="#2F2E41"/>
<path d="M582.469 205.028C582.727 261.041 543.302 306.631 543.302 306.631C543.302 306.631 503.458 261.406 503.199 205.393C502.941 149.38 542.367 103.79 542.367 103.79C542.367 103.79 582.211 149.015 582.469 205.028Z" fill="#7B4CDB"/>
<path opacity="0.1" d="M472.866 247.052C471.746 248.837 470.293 248.795 468.983 247.974C467.673 247.153 467.002 245.864 468.122 244.079C469.242 242.293 473.039 241.508 473.039 241.508C473.039 241.508 473.986 245.266 472.866 247.052Z" fill="black"/>
<path opacity="0.1" d="M738.058 268.451C736.938 270.236 735.485 270.194 734.175 269.373C732.865 268.553 732.194 267.264 733.314 265.478C734.434 263.692 738.231 262.907 738.231 262.907C738.231 262.907 739.178 266.665 738.058 268.451Z" fill="black"/>
<path opacity="0.1" d="M592.741 257.489C593.213 259.543 592.155 260.54 590.648 260.886C589.141 261.231 587.755 260.794 587.284 258.74C586.812 256.686 588.942 253.447 588.942 253.447C588.942 253.447 592.27 255.435 592.741 257.489Z" fill="black"/>
<path opacity="0.1" d="M829.618 332.041C830.089 334.095 829.032 335.092 827.525 335.438C826.018 335.783 824.632 335.346 824.161 333.292C823.689 331.238 825.819 327.999 825.819 327.999C825.819 327.999 829.147 329.987 829.618 332.041Z" fill="black"/>
<path opacity="0.1" d="M572.759 290.855C573.569 294.385 571.752 296.1 569.162 296.693C566.572 297.287 564.189 296.536 563.379 293.005C562.569 289.475 566.229 283.908 566.229 283.908C566.229 283.908 571.949 287.324 572.759 290.855Z" fill="black"/>
<path opacity="0.1" d="M673.372 308.528C671.673 311.727 669.177 311.835 666.83 310.59C664.482 309.345 663.172 307.219 664.871 304.019C666.569 300.82 672.98 299.003 672.98 299.003C672.98 299.003 675.07 305.328 673.372 308.528Z" fill="black"/>
<path opacity="0.1" d="M773.905 345.047C773.433 348.638 771.132 349.612 768.497 349.266C765.862 348.92 763.891 347.385 764.363 343.794C764.835 340.203 770.207 336.26 770.207 336.26C770.207 336.26 774.377 341.456 773.905 345.047Z" fill="black"/>
<path d="M571.379 152.789L502.856 223.395L503.352 223.876L571.875 153.27L571.379 152.789Z" fill="#3F3D56"/>
<path d="M578.285 176.259L509.762 246.865L510.258 247.346L578.781 176.74L578.285 176.259Z" fill="#3F3D56"/>
<path d="M808.316 157.953L754.414 213.563C754.477 213.156 754.552 212.756 754.621 212.348L807.95 157.332C808.074 157.539 808.199 157.746 808.316 157.953Z" fill="#3F3D56"/>
<path d="M824.116 196.945L755.641 267.597L756.137 268.078L824.612 197.425L824.116 196.945Z" fill="#3F3D56"/>
<path d="M818.613 177.944L752.964 245.669L751.99 246.677L751.493 246.193L752.888 244.758L818.309 177.261C818.42 177.488 818.516 177.716 818.613 177.944Z" fill="#3F3D56"/>
<path d="M537.363 165.783H528.727V157.151H537.363V165.783ZM529.391 165.119H536.699V157.815H529.391V165.119Z" fill="#2F2E41"/>
<path d="M794.267 280.372H785.632V271.74H794.267V280.372ZM786.296 279.708H793.603V272.404H786.296V279.708Z" fill="#2F2E41"/>
<path opacity="0.4" d="M439.644 89.1737C445.335 89.1737 449.948 84.5625 449.948 78.8744C449.948 73.1862 445.335 68.5751 439.644 68.5751C433.953 68.5751 429.34 73.1862 429.34 78.8744C429.34 84.5625 433.953 89.1737 439.644 89.1737Z" fill="#7B4CDB"/>
<path opacity="0.4" d="M420.574 91.0183C424.566 91.0183 427.802 87.7836 427.802 83.7934C427.802 79.8032 424.566 76.5686 420.574 76.5686C416.582 76.5686 413.346 79.8032 413.346 83.7934C413.346 87.7836 416.582 91.0183 420.574 91.0183Z" fill="#7B4CDB"/>
<path opacity="0.4" d="M889.02 74.0373C900.938 74.0373 910.6 64.3799 910.6 52.467C910.6 40.5541 900.938 30.8968 889.02 30.8968C877.102 30.8968 867.44 40.5541 867.44 52.467C867.44 64.3799 877.102 74.0373 889.02 74.0373Z" fill="#7B4CDB"/>
<path opacity="0.4" d="M858.231 95.0348C866.592 95.0348 873.37 88.2603 873.37 79.9034C873.37 71.5466 866.592 64.7721 858.231 64.7721C849.871 64.7721 843.093 71.5466 843.093 79.9034C843.093 88.2603 849.871 95.0348 858.231 95.0348Z" fill="#7B4CDB"/>
<path d="M458.883 389.258L458.227 389.246C458.481 381.956 459.259 374.694 460.556 367.516C463.392 352.148 468.108 342.055 474.573 337.518L474.95 338.054C459.847 348.654 458.891 388.853 458.883 389.258Z" fill="#2F2E41"/>
<path d="M467.082 389.101L466.426 389.089C466.44 388.363 466.85 371.251 473.59 366.522L473.966 367.058C467.499 371.597 467.085 388.927 467.082 389.101Z" fill="#2F2E41"/>
<path d="M478.682 338.114C480.493 338.114 481.961 336.646 481.961 334.836C481.961 333.025 480.493 331.558 478.682 331.558C476.87 331.558 475.402 333.025 475.402 334.836C475.402 336.646 476.87 338.114 478.682 338.114Z" fill="#7B4CDB"/>
<path d="M477.057 366.305C478.869 366.305 480.337 364.838 480.337 363.027C480.337 361.217 478.869 359.749 477.057 359.749C475.246 359.749 473.778 361.217 473.778 363.027C473.778 364.838 475.246 366.305 477.057 366.305Z" fill="#7B4CDB"/>
<path d="M465.553 340.079C465.882 342.608 465.541 345.178 464.563 347.534C462.856 345.626 461.737 343.267 461.341 340.738C460.945 338.21 461.289 335.621 462.331 333.284C463.982 335.228 465.093 337.571 465.553 340.079V340.079Z" fill="#2F2E41"/>
<path d="M476.273 349.636C473.84 350.4 471.248 350.512 468.757 349.96C470.339 347.948 472.468 346.435 474.89 345.605C477.312 344.775 479.922 344.662 482.406 345.281C480.779 347.244 478.664 348.746 476.273 349.636V349.636Z" fill="#2F2E41"/>
<path d="M476.394 374.602C474.688 375.138 472.872 375.216 471.126 374.829C472.234 373.419 473.727 372.359 475.425 371.777C477.122 371.195 478.952 371.116 480.693 371.549C479.552 372.926 478.07 373.978 476.394 374.602V374.602Z" fill="#2F2E41"/>
<path d="M460.518 592H179V590.364H459.699L460.518 592Z" fill="#2F2E41"/>
<path d="M239.138 567.51C239.138 567.51 234.199 588.154 238.689 589.051C243.179 589.949 265.178 589.659 270.566 590.557C275.953 591.454 287.178 589.949 287.178 585.91C287.178 581.871 275.504 579.178 275.504 579.178C275.504 579.178 258.893 570.203 258.444 569.754C257.995 569.305 239.138 567.51 239.138 567.51Z" fill="#2F2E41"/>
<path d="M243.179 445.894C243.179 445.894 244.526 461.153 244.526 462.499C244.526 463.845 243.179 484.937 244.526 485.835C245.873 486.732 243.628 493.015 243.628 495.259C243.628 497.503 236.444 534.75 238.24 549.111C240.036 563.471 235.546 562.125 236.893 563.471C238.24 564.818 238.24 564.818 238.24 567.51C238.24 570.203 252.607 572.447 252.607 572.447L268.321 473.269L260.24 443.651L243.179 445.894Z" fill="#575A89"/>
<path opacity="0.1" d="M243.179 445.894C243.179 445.894 244.526 461.153 244.526 462.499C244.526 463.845 243.179 484.937 244.526 485.835C245.873 486.732 243.628 493.015 243.628 495.259C243.628 497.503 236.444 534.75 238.24 549.111C240.036 563.471 235.546 562.125 236.893 563.471C238.24 564.818 238.24 564.818 238.24 567.51C238.24 570.203 252.607 572.447 252.607 572.447L268.321 473.269L260.24 443.651L243.179 445.894Z" fill="black"/>
<path d="M245.424 573.793C245.424 573.793 240.934 589.949 245.424 590.846C249.913 591.744 271.913 589.818 277.3 590.716C282.688 591.613 293.912 591.744 293.912 587.705C293.912 583.666 282.239 580.973 282.239 580.973C282.239 580.973 265.627 571.998 265.178 571.549C264.729 571.1 245.424 573.793 245.424 573.793Z" fill="#2F2E41"/>
<path d="M239.138 427.944C239.138 427.944 233.75 440.958 240.036 447.69C246.321 454.421 253.505 467.884 253.505 468.782C253.505 469.679 240.934 558.984 242.73 564.818C244.525 570.652 244.077 574.242 243.628 575.139C243.179 576.037 248.117 580.973 253.505 580.973C258.892 580.973 266.974 576.934 267.872 573.344C268.77 569.754 266.525 538.789 266.974 532.955C267.423 527.121 269.668 518.595 270.566 516.8C271.464 515.005 276.402 513.21 277.3 507.824C278.198 502.439 285.382 433.778 283.137 431.534C280.892 429.29 239.138 427.944 239.138 427.944Z" fill="#575A89"/>
<path d="M273.26 324.727C281.69 324.727 288.524 317.896 288.524 309.469C288.524 301.042 281.69 294.211 273.26 294.211C264.829 294.211 257.995 301.042 257.995 309.469C257.995 317.896 264.829 324.727 273.26 324.727Z" fill="#FFB9B9"/>
<path d="M263.831 317.098C263.831 317.098 266.974 333.703 264.729 335.498C262.484 337.293 281.79 339.985 281.79 339.985C281.79 339.985 284.035 317.996 284.484 315.752C284.933 313.508 263.831 317.098 263.831 317.098Z" fill="#FFB9B9"/>
<path d="M284.484 338.639C284.484 338.639 279.096 322.932 257.097 327.42C257.097 327.42 253.056 328.766 254.403 330.113C255.75 331.459 257.097 331.459 255.301 332.805C253.505 334.151 251.26 332.805 252.607 334.151C253.954 335.498 240.485 343.576 241.383 358.834C242.281 374.092 238.24 395.633 241.383 399.223C244.526 402.813 239.138 418.52 240.036 421.661C240.934 424.802 234.648 428.841 237.342 430.188C240.036 431.534 288.525 439.612 289.871 430.188C291.218 420.763 290.32 427.495 291.667 425.251C293.014 423.007 293.463 418.968 292.565 414.032C291.667 409.096 289.422 396.979 290.32 392.491C291.218 388.004 290.32 350.307 287.627 345.819C284.933 341.332 284.484 338.639 284.484 338.639Z" fill="#7B4CDB"/>
<path d="M275.055 448.138C275.055 448.138 268.321 473.718 276.851 473.718C285.382 473.718 284.933 447.241 284.933 447.241L275.055 448.138Z" fill="#FFB9B9"/>
<path d="M279.994 309.469C279.994 310.771 278.108 311.596 275.186 311.785H275.181C273.942 311.855 272.699 311.831 271.464 311.713C269.596 311.543 268.824 313.297 268.505 315.613C267.984 319.432 268.711 324.786 267.872 325.625C266.714 326.783 258.268 325.62 255.629 322.995C255.218 322.627 254.944 322.13 254.852 321.586C254.575 319.983 253.784 318.513 252.598 317.399C251.04 315.698 248.822 313.813 246.321 310.816C241.832 305.43 246.321 304.982 247.668 300.943C249.015 296.904 251.26 295.558 251.26 292.865C251.26 290.172 261.586 287.928 270.117 288.377C278.647 288.826 276.851 299.596 276.851 299.596C276.851 299.596 277.359 300.898 277.965 302.576C278.785 304.682 279.451 306.845 279.958 309.047C279.979 309.187 279.991 309.328 279.994 309.469V309.469Z" fill="#2F2E41"/>
<path d="M292.116 291.518V287.48L279.994 288.377L278.337 295.079L281.736 299.392L289.871 294.211L292.116 291.518Z" fill="#575A89"/>
<path opacity="0.1" d="M292.116 291.518V287.48L279.994 288.377L278.337 295.079L281.736 299.392L289.871 294.211L292.116 291.518Z" fill="black"/>
<path d="M299.3 300.045L291.218 302.289L283.137 307.225L279.958 309.047L275.186 311.785H275.181L268.505 315.613L255.629 322.995C255.218 322.627 254.944 322.13 254.852 321.586C254.575 319.983 253.784 318.513 252.598 317.399L277.965 302.576L279.994 301.391L292.116 287.48L299.3 300.045Z" fill="#575A89"/>
<path opacity="0.1" d="M278.198 345.371C278.198 345.371 262.933 344.473 261.586 366.911C260.24 389.35 260.689 410.442 260.689 410.891C260.689 411.339 266.974 453.972 272.811 453.972C278.647 453.972 283.137 453.075 284.484 450.831C285.831 448.587 280.892 416.276 280.892 416.276C280.892 416.276 278.647 382.17 282.239 371.399C285.831 360.629 286.28 346.717 278.198 345.371Z" fill="black"/>
<path d="M280.443 343.127C280.443 343.127 265.178 342.229 263.831 364.668C262.484 387.106 262.933 408.198 262.933 408.647C262.933 409.096 269.219 451.728 275.055 451.728C280.892 451.728 285.382 450.831 286.728 448.587C288.075 446.343 283.137 414.032 283.137 414.032C283.137 414.032 280.892 379.926 284.484 369.155C288.075 358.385 288.524 344.473 280.443 343.127Z" fill="#7B4CDB"/>
</g>
<defs>
<clipPath id="clip0">
<rect width="811" height="592" fill="white" transform="translate(179)"/>
</clipPath>
</defs>
</svg>
