<svg width="769" height="542" viewBox="0 0 769 542" fill="none" xmlns="http://www.w3.org/2000/svg">
<g id="art">
<path id="Vector 1" d="M13.8874 277.202C49.1088 187.212 100.513 173.88 214.745 139.217C214.745 139.217 215.507 216.408 351.824 197.21C522.22 173.213 616.937 85.223 665.485 139.217C724.708 205.084 817.794 308.698 736.88 374.691C655.966 440.683 919.067 634.121 97.6574 489.678C13.8881 474.947 -22.0724 369.078 13.8874 277.202Z" fill="#F2ECFF"/>
<g id="dots">
<g id="Group">
<path id="Vector" d="M28.8398 6.22822C26.9657 6.87893 25.2701 8.84965 24.8774 10.839C24.1099 14.6689 27.7868 18.4987 31.4636 17.6993C34.2301 17.1044 36.372 14.1669 36.1043 11.3967C35.9079 9.44459 34.4979 7.43668 32.713 6.52569C31.6242 5.98653 29.9464 5.85639 28.8398 6.22822Z" fill="#B998FC"/>
<path id="Vector_2" d="M51.6856 6.22822C48.9904 7.1578 47.1698 10.244 47.7231 12.9584C48.1694 15.1708 50.1506 17.2345 52.2567 17.6993C55.7194 18.4615 59.307 15.0593 58.95 11.3967C58.7537 9.44458 57.3436 7.43668 55.5587 6.52568C54.47 5.98653 52.7922 5.85638 51.6856 6.22822Z" fill="#B998FC"/>
<path id="Vector_3" d="M74.5327 6.22822C72.6586 6.87893 70.963 8.84965 70.5703 10.839C69.8028 14.6689 73.4796 18.4987 77.1565 17.6993C79.923 17.1044 82.0649 14.1669 81.7972 11.3967C81.6008 9.44459 80.1908 7.43668 78.4059 6.52569C77.3171 5.98653 75.6393 5.85639 74.5327 6.22822Z" fill="#B998FC"/>
<path id="Vector_4" d="M97.3788 6.22822C95.5046 6.87893 93.809 8.84965 93.4163 10.839C92.6489 14.6689 96.3257 18.4987 100.003 17.6993C102.769 17.1044 104.911 14.1669 104.643 11.3967C104.447 9.44459 103.037 7.43668 101.252 6.52569C100.163 5.98653 98.4854 5.85639 97.3788 6.22822Z" fill="#B998FC"/>
<path id="Vector_5" d="M120.225 6.22822C118.351 6.87893 116.656 8.84965 116.263 10.839C115.496 14.6689 119.172 18.4987 122.849 17.6993C125.616 17.1044 127.758 14.1669 127.49 11.3967C127.293 9.44459 125.883 7.43668 124.099 6.52569C123.01 5.98653 121.332 5.85639 120.225 6.22822Z" fill="#B998FC"/>
<path id="Vector_6" d="M143.072 6.22822C141.198 6.87893 139.502 8.84965 139.109 10.839C138.342 14.6689 142.019 18.4987 145.696 17.6993C148.462 17.1044 150.604 14.1669 150.336 11.3967C150.14 9.44459 148.73 7.43668 146.945 6.52569C145.856 5.98653 144.178 5.85639 143.072 6.22822Z" fill="#B998FC"/>
<path id="Vector_7" d="M165.918 6.22822C164.044 6.87893 162.348 8.84965 161.956 10.839C161.188 14.6689 164.865 18.4987 168.542 17.6993C171.308 17.1044 173.45 14.1669 173.183 11.3967C172.986 9.44459 171.576 7.43668 169.791 6.52569C168.702 5.98653 167.025 5.85639 165.918 6.22822Z" fill="#B998FC"/>
<path id="Vector_8" d="M188.765 6.22822C186.89 6.87893 185.195 8.84965 184.802 10.839C184.035 14.6689 187.712 18.4987 191.388 17.6993C194.155 17.1044 196.297 14.1669 196.029 11.3967C195.833 9.44459 194.423 7.43668 192.638 6.52569C191.549 5.98653 189.871 5.85639 188.765 6.22822Z" fill="#B998FC"/>
<path id="Vector_9" d="M211.61 6.22822C209.736 6.87893 208.041 8.84964 207.648 10.839C207.202 13.0142 208.219 15.3753 210.182 16.7697C212.092 18.1455 214.27 18.1641 216.198 16.8255C219.357 14.6317 219.785 10.5415 217.143 7.80851C215.626 6.20963 213.449 5.5961 211.61 6.22822Z" fill="#B998FC"/>
<path id="Vector_10" d="M234.457 6.22822C232.583 6.87893 230.888 8.84964 230.495 10.839C230.049 13.0142 231.066 15.3753 233.03 16.7697C234.939 18.1455 237.117 18.1641 239.045 16.8255C242.204 14.6317 242.632 10.5415 239.991 7.80851C238.473 6.20963 236.296 5.5961 234.457 6.22822Z" fill="#B998FC"/>
<path id="Vector_11" d="M28.8398 30.0255C26.9657 30.6762 25.2701 32.6469 24.8774 34.6362C24.1099 38.4661 27.7868 42.296 31.4636 41.4965C34.2301 40.9016 36.372 37.9641 36.1043 35.194C35.9079 33.2418 34.4979 31.2339 32.713 30.3229C31.6242 29.7838 29.9464 29.6536 28.8398 30.0255Z" fill="#B998FC"/>
<path id="Vector_12" d="M51.6856 30.0254C48.9904 30.955 47.1698 34.0412 47.7231 36.7556C48.1694 38.9681 50.1506 41.0317 52.2567 41.4965C55.7194 42.2588 59.307 38.8565 58.95 35.1939C58.7537 33.2418 57.3436 31.2339 55.5587 30.3229C54.47 29.7837 52.7922 29.6536 51.6856 30.0254Z" fill="#B998FC"/>
<path id="Vector_13" d="M74.5327 30.0255C72.6586 30.6762 70.963 32.6469 70.5703 34.6362C69.8028 38.4661 73.4796 42.296 77.1565 41.4965C79.923 40.9016 82.0649 37.9641 81.7972 35.194C81.6008 33.2418 80.1908 31.2339 78.4059 30.3229C77.3171 29.7838 75.6393 29.6536 74.5327 30.0255Z" fill="#B998FC"/>
<path id="Vector_14" d="M97.3788 30.0255C95.5046 30.6762 93.809 32.6469 93.4163 34.6362C92.6489 38.4661 96.3257 42.296 100.003 41.4965C102.769 40.9016 104.911 37.9641 104.643 35.194C104.447 33.2418 103.037 31.2339 101.252 30.3229C100.163 29.7838 98.4854 29.6536 97.3788 30.0255Z" fill="#B998FC"/>
<path id="Vector_15" d="M120.225 30.0255C118.351 30.6762 116.656 32.6469 116.263 34.6362C115.496 38.4661 119.172 42.296 122.849 41.4965C125.616 40.9016 127.758 37.9641 127.49 35.194C127.293 33.2418 125.883 31.2339 124.099 30.3229C123.01 29.7838 121.332 29.6536 120.225 30.0255Z" fill="#B998FC"/>
<path id="Vector_16" d="M143.072 30.0255C141.198 30.6762 139.502 32.6469 139.109 34.6362C138.342 38.4661 142.019 42.296 145.696 41.4965C148.462 40.9016 150.604 37.9641 150.336 35.194C150.14 33.2418 148.73 31.2339 146.945 30.3229C145.856 29.7838 144.178 29.6536 143.072 30.0255Z" fill="#B998FC"/>
<path id="Vector_17" d="M165.918 30.0255C164.044 30.6762 162.348 32.6469 161.956 34.6362C161.188 38.4661 164.865 42.296 168.542 41.4965C171.308 40.9016 173.45 37.9641 173.183 35.194C172.986 33.2418 171.576 31.2339 169.791 30.3229C168.702 29.7838 167.025 29.6536 165.918 30.0255Z" fill="#B998FC"/>
<path id="Vector_18" d="M188.765 30.0255C186.89 30.6762 185.195 32.6469 184.802 34.6362C184.035 38.4661 187.712 42.296 191.388 41.4965C194.155 40.9016 196.297 37.9641 196.029 35.194C195.833 33.2418 194.423 31.2339 192.638 30.3229C191.549 29.7838 189.871 29.6536 188.765 30.0255Z" fill="#B998FC"/>
<path id="Vector_19" d="M211.61 30.0256C209.736 30.6763 208.041 32.647 207.648 34.6363C207.202 36.8115 208.219 39.1727 210.182 40.5671C212.092 41.9428 214.27 41.9614 216.198 40.6228C219.357 38.429 219.785 34.3388 217.143 31.6059C215.626 30.007 213.449 29.3935 211.61 30.0256Z" fill="#B998FC"/>
<path id="Vector_20" d="M234.457 30.0256C232.583 30.6763 230.888 32.647 230.495 34.6363C230.049 36.8115 231.066 39.1727 233.03 40.5671C234.939 41.9428 237.117 41.9614 239.045 40.6228C242.204 38.429 242.632 34.3388 239.991 31.6059C238.473 30.007 236.296 29.3935 234.457 30.0256Z" fill="#B998FC"/>
<path id="Vector_21" d="M28.8398 53.8228C26.9657 54.4735 25.2701 56.4442 24.8774 58.4336C24.1099 62.2635 27.7868 66.0933 31.4636 65.2939C34.2301 64.699 36.372 61.7615 36.1043 58.9913C35.9079 57.0392 34.4979 55.0313 32.713 54.1203C31.6242 53.5811 29.9464 53.451 28.8398 53.8228Z" fill="#B998FC"/>
<path id="Vector_22" d="M51.6862 53.8228C49.812 54.4735 48.1164 56.4442 47.7237 58.4336C46.9562 62.2635 50.6331 66.0933 54.3099 65.2939C57.0765 64.699 59.2183 61.7615 58.9506 58.9913C58.7543 57.0392 57.3442 55.0313 55.5593 54.1203C54.4706 53.5811 52.7928 53.451 51.6862 53.8228Z" fill="#B998FC"/>
<path id="Vector_23" d="M74.5327 53.8228C72.6586 54.4735 70.963 56.4442 70.5703 58.4336C69.8028 62.2635 73.4796 66.0933 77.1565 65.2939C79.923 64.699 82.0649 61.7615 81.7972 58.9913C81.6008 57.0392 80.1908 55.0313 78.4059 54.1203C77.3171 53.5811 75.6393 53.451 74.5327 53.8228Z" fill="#B998FC"/>
<path id="Vector_24" d="M97.3788 53.8228C95.5046 54.4735 93.809 56.4442 93.4163 58.4336C92.6489 62.2635 96.3257 66.0933 100.003 65.2939C102.769 64.699 104.911 61.7615 104.643 58.9913C104.447 57.0392 103.037 55.0313 101.252 54.1203C100.163 53.5811 98.4854 53.451 97.3788 53.8228Z" fill="#B998FC"/>
<path id="Vector_25" d="M120.225 53.8228C118.351 54.4735 116.656 56.4442 116.263 58.4336C115.496 62.2635 119.172 66.0933 122.849 65.2939C125.616 64.699 127.758 61.7615 127.49 58.9913C127.293 57.0392 125.883 55.0313 124.099 54.1203C123.01 53.5811 121.332 53.451 120.225 53.8228Z" fill="#B998FC"/>
<path id="Vector_26" d="M143.072 53.8228C141.198 54.4735 139.502 56.4442 139.109 58.4336C138.342 62.2635 142.019 66.0933 145.696 65.2939C148.462 64.699 150.604 61.7615 150.336 58.9913C150.14 57.0392 148.73 55.0313 146.945 54.1203C145.856 53.5811 144.178 53.451 143.072 53.8228Z" fill="#B998FC"/>
<path id="Vector_27" d="M165.918 53.8228C164.044 54.4735 162.348 56.4442 161.956 58.4336C161.188 62.2635 164.865 66.0933 168.542 65.2939C171.308 64.699 173.45 61.7615 173.183 58.9913C172.986 57.0392 171.576 55.0313 169.791 54.1203C168.702 53.5811 167.025 53.451 165.918 53.8228Z" fill="#B998FC"/>
<path id="Vector_28" d="M188.765 53.8228C186.89 54.4735 185.195 56.4442 184.802 58.4336C184.035 62.2635 187.712 66.0933 191.388 65.2939C194.155 64.699 196.297 61.7615 196.029 58.9913C195.833 57.0392 194.423 55.0313 192.638 54.1203C191.549 53.5811 189.871 53.451 188.765 53.8228Z" fill="#B998FC"/>
<path id="Vector_29" d="M211.611 53.8228C209.736 54.4735 208.041 56.4442 207.648 58.4336C206.881 62.2635 210.558 66.0933 214.234 65.2939C217.001 64.699 219.143 61.7615 218.875 58.9913C218.679 57.0392 217.269 55.0313 215.484 54.1203C214.395 53.5811 212.717 53.451 211.611 53.8228Z" fill="#B998FC"/>
<path id="Vector_30" d="M234.457 53.8228C232.583 54.4735 230.887 56.4442 230.495 58.4336C229.727 62.2635 233.404 66.0933 237.081 65.2939C239.847 64.699 241.989 61.7615 241.722 58.9913C241.525 57.0392 240.115 55.0313 238.33 54.1203C237.242 53.5811 235.564 53.451 234.457 53.8228Z" fill="#B998FC"/>
<path id="Vector_31" d="M28.8398 77.6202C26.9657 78.2709 25.2701 80.2416 24.8774 82.2309C24.1099 86.0608 27.7868 89.8907 31.4636 89.0913C34.2301 88.4963 36.372 85.5588 36.1043 82.7887C35.9079 80.8365 34.4979 78.8286 32.713 77.9176C31.6242 77.3785 29.9464 77.2483 28.8398 77.6202Z" fill="#B998FC"/>
<path id="Vector_32" d="M51.6862 77.6202C49.812 78.2709 48.1164 80.2416 47.7237 82.2309C46.9562 86.0608 50.6331 89.8907 54.3099 89.0913C57.0765 88.4963 59.2183 85.5588 58.9506 82.7887C58.7543 80.8365 57.3442 78.8286 55.5593 77.9176C54.4706 77.3785 52.7928 77.2483 51.6862 77.6202Z" fill="#B998FC"/>
<path id="Vector_33" d="M74.5327 77.6202C72.6586 78.2709 70.963 80.2416 70.5703 82.2309C69.8028 86.0608 73.4796 89.8907 77.1565 89.0913C79.923 88.4963 82.0649 85.5588 81.7972 82.7887C81.6008 80.8365 80.1908 78.8286 78.4059 77.9176C77.3171 77.3785 75.6393 77.2483 74.5327 77.6202Z" fill="#B998FC"/>
<path id="Vector_34" d="M97.3788 77.6202C95.5046 78.2709 93.809 80.2416 93.4163 82.2309C92.6489 86.0608 96.3257 89.8907 100.003 89.0913C102.769 88.4963 104.911 85.5588 104.643 82.7887C104.447 80.8365 103.037 78.8286 101.252 77.9176C100.163 77.3785 98.4854 77.2483 97.3788 77.6202Z" fill="#B998FC"/>
<path id="Vector_35" d="M120.225 77.6202C118.351 78.2709 116.656 80.2416 116.263 82.2309C115.496 86.0608 119.172 89.8907 122.849 89.0913C125.616 88.4963 127.758 85.5588 127.49 82.7887C127.293 80.8365 125.883 78.8286 124.099 77.9176C123.01 77.3785 121.332 77.2483 120.225 77.6202Z" fill="#B998FC"/>
<path id="Vector_36" d="M143.072 77.6202C141.198 78.2709 139.502 80.2416 139.109 82.2309C138.342 86.0608 142.019 89.8907 145.696 89.0913C148.462 88.4963 150.604 85.5588 150.336 82.7887C150.14 80.8365 148.73 78.8286 146.945 77.9176C145.856 77.3785 144.178 77.2483 143.072 77.6202Z" fill="#B998FC"/>
<path id="Vector_37" d="M165.918 77.6202C164.044 78.2709 162.348 80.2416 161.956 82.2309C161.188 86.0608 164.865 89.8907 168.542 89.0913C171.308 88.4963 173.45 85.5588 173.183 82.7887C172.986 80.8365 171.576 78.8286 169.791 77.9176C168.702 77.3785 167.025 77.2483 165.918 77.6202Z" fill="#B998FC"/>
<path id="Vector_38" d="M188.765 77.6202C186.89 78.2709 185.195 80.2416 184.802 82.2309C184.035 86.0608 187.712 89.8907 191.388 89.0913C194.155 88.4963 196.297 85.5588 196.029 82.7887C195.833 80.8365 194.423 78.8286 192.638 77.9176C191.549 77.3785 189.871 77.2483 188.765 77.6202Z" fill="#B998FC"/>
<path id="Vector_39" d="M211.611 77.6202C209.736 78.2709 208.041 80.2416 207.648 82.2309C206.881 86.0608 210.558 89.8907 214.234 89.0913C217.001 88.4963 219.143 85.5588 218.875 82.7887C218.679 80.8365 217.269 78.8286 215.484 77.9176C214.395 77.3785 212.717 77.2483 211.611 77.6202Z" fill="#B998FC"/>
<path id="Vector_40" d="M234.457 77.6202C232.583 78.2709 230.887 80.2416 230.495 82.2309C229.727 86.0608 233.404 89.8907 237.081 89.0913C239.847 88.4963 241.989 85.5588 241.722 82.7887C241.525 80.8365 240.115 78.8286 238.33 77.9176C237.242 77.3785 235.564 77.2483 234.457 77.6202Z" fill="#B998FC"/>
<path id="Vector_41" d="M28.8398 101.418C26.9657 102.068 25.2701 104.039 24.8774 106.028C24.1099 109.858 27.7868 113.688 31.4636 112.889C34.2301 112.294 36.372 109.356 36.1043 106.586C35.9079 104.634 34.4979 102.626 32.713 101.715C31.6242 101.176 29.9464 101.046 28.8398 101.418Z" fill="#B998FC"/>
<path id="Vector_42" d="M51.6862 101.418C49.812 102.068 48.1164 104.039 47.7237 106.028C46.9562 109.858 50.6331 113.688 54.3099 112.889C57.0765 112.294 59.2183 109.356 58.9506 106.586C58.7543 104.634 57.3442 102.626 55.5593 101.715C54.4706 101.176 52.7928 101.046 51.6862 101.418Z" fill="#B998FC"/>
<path id="Vector_43" d="M74.5327 101.418C72.6586 102.068 70.963 104.039 70.5703 106.028C69.8028 109.858 73.4796 113.688 77.1565 112.889C79.923 112.294 82.0649 109.356 81.7972 106.586C81.6008 104.634 80.1908 102.626 78.4059 101.715C77.3171 101.176 75.6393 101.046 74.5327 101.418Z" fill="#B998FC"/>
<path id="Vector_44" d="M97.3788 101.418C95.5046 102.068 93.809 104.039 93.4163 106.028C92.6489 109.858 96.3257 113.688 100.003 112.889C102.769 112.294 104.911 109.356 104.643 106.586C104.447 104.634 103.037 102.626 101.252 101.715C100.163 101.176 98.4854 101.046 97.3788 101.418Z" fill="#B998FC"/>
<path id="Vector_45" d="M120.225 101.418C118.351 102.068 116.656 104.039 116.263 106.028C115.496 109.858 119.172 113.688 122.849 112.889C125.616 112.294 127.758 109.356 127.49 106.586C127.293 104.634 125.883 102.626 124.099 101.715C123.01 101.176 121.332 101.046 120.225 101.418Z" fill="#B998FC"/>
<path id="Vector_46" d="M143.072 101.418C141.198 102.068 139.502 104.039 139.109 106.028C138.342 109.858 142.019 113.688 145.696 112.889C148.462 112.294 150.604 109.356 150.336 106.586C150.14 104.634 148.73 102.626 146.945 101.715C145.856 101.176 144.178 101.046 143.072 101.418Z" fill="#B998FC"/>
<path id="Vector_47" d="M165.918 101.418C164.044 102.068 162.348 104.039 161.956 106.028C161.188 109.858 164.865 113.688 168.542 112.889C171.308 112.294 173.45 109.356 173.183 106.586C172.986 104.634 171.576 102.626 169.791 101.715C168.702 101.176 167.025 101.046 165.918 101.418Z" fill="#B998FC"/>
<path id="Vector_48" d="M188.765 101.418C186.89 102.068 185.195 104.039 184.802 106.028C184.035 109.858 187.712 113.688 191.388 112.889C194.155 112.294 196.297 109.356 196.029 106.586C195.833 104.634 194.423 102.626 192.638 101.715C191.549 101.176 189.871 101.046 188.765 101.418Z" fill="#B998FC"/>
<path id="Vector_49" d="M211.611 101.418C209.736 102.068 208.041 104.039 207.648 106.028C206.881 109.858 210.558 113.688 214.234 112.889C217.001 112.294 219.143 109.356 218.875 106.586C218.679 104.634 217.269 102.626 215.484 101.715C214.395 101.176 212.717 101.046 211.611 101.418Z" fill="#B998FC"/>
<path id="Vector_50" d="M234.457 101.418C232.583 102.068 230.887 104.039 230.495 106.028C229.727 109.858 233.404 113.688 237.081 112.889C239.847 112.294 241.989 109.356 241.722 106.586C241.525 104.634 240.115 102.626 238.33 101.715C237.242 101.176 235.564 101.046 234.457 101.418Z" fill="#B998FC"/>
<path id="Vector_51" d="M28.8398 125.215C26.9657 125.866 25.2701 127.836 24.8774 129.826C24.1099 133.656 27.7868 137.485 31.4636 136.686C34.2301 136.091 36.372 133.154 36.1043 130.383C35.9079 128.431 34.4979 126.423 32.713 125.512C31.6242 124.973 29.9464 124.843 28.8398 125.215Z" fill="#B998FC"/>
<path id="Vector_52" d="M51.6862 125.215C49.812 125.866 48.1164 127.836 47.7237 129.826C46.9562 133.656 50.6331 137.485 54.3099 136.686C57.0765 136.091 59.2183 133.154 58.9506 130.383C58.7543 128.431 57.3442 126.423 55.5593 125.512C54.4706 124.973 52.7928 124.843 51.6862 125.215Z" fill="#B998FC"/>
<path id="Vector_53" d="M74.5327 125.215C72.6586 125.866 70.963 127.836 70.5703 129.826C69.8028 133.656 73.4796 137.485 77.1565 136.686C79.923 136.091 82.0649 133.154 81.7972 130.383C81.6008 128.431 80.1908 126.423 78.4059 125.512C77.3171 124.973 75.6393 124.843 74.5327 125.215Z" fill="#B998FC"/>
<path id="Vector_54" d="M97.3788 125.215C95.5046 125.866 93.809 127.836 93.4163 129.826C92.6489 133.656 96.3257 137.485 100.003 136.686C102.769 136.091 104.911 133.154 104.643 130.383C104.447 128.431 103.037 126.423 101.252 125.512C100.163 124.973 98.4854 124.843 97.3788 125.215Z" fill="#B998FC"/>
<path id="Vector_55" d="M120.225 125.215C118.351 125.866 116.656 127.836 116.263 129.826C115.496 133.656 119.172 137.485 122.849 136.686C125.616 136.091 127.758 133.154 127.49 130.383C127.293 128.431 125.883 126.423 124.099 125.512C123.01 124.973 121.332 124.843 120.225 125.215Z" fill="#B998FC"/>
<path id="Vector_56" d="M143.072 125.215C141.198 125.866 139.502 127.836 139.109 129.826C138.342 133.656 142.019 137.485 145.696 136.686C148.462 136.091 150.604 133.154 150.336 130.383C150.14 128.431 148.73 126.423 146.945 125.512C145.856 124.973 144.178 124.843 143.072 125.215Z" fill="#B998FC"/>
<path id="Vector_57" d="M165.918 125.215C164.044 125.866 162.348 127.836 161.956 129.826C161.188 133.656 164.865 137.485 168.542 136.686C171.308 136.091 173.45 133.154 173.183 130.383C172.986 128.431 171.576 126.423 169.791 125.512C168.702 124.973 167.025 124.843 165.918 125.215Z" fill="#B998FC"/>
<path id="Vector_58" d="M188.765 125.215C186.89 125.866 185.195 127.836 184.802 129.826C184.035 133.656 187.712 137.485 191.388 136.686C194.155 136.091 196.297 133.154 196.029 130.383C195.833 128.431 194.423 126.423 192.638 125.512C191.549 124.973 189.871 124.843 188.765 125.215Z" fill="#B998FC"/>
<path id="Vector_59" d="M211.611 125.215C209.736 125.866 208.041 127.836 207.648 129.826C206.881 133.656 210.558 137.485 214.234 136.686C217.001 136.091 219.143 133.154 218.875 130.383C218.679 128.431 217.269 126.423 215.484 125.512C214.395 124.973 212.717 124.843 211.611 125.215Z" fill="#B998FC"/>
<path id="Vector_60" d="M234.457 125.215C232.583 125.866 230.887 127.836 230.495 129.826C229.727 133.656 233.404 137.485 237.081 136.686C239.847 136.091 241.989 133.154 241.722 130.383C241.525 128.431 240.115 126.423 238.33 125.512C237.242 124.973 235.564 124.843 234.457 125.215Z" fill="#B998FC"/>
<path id="Vector_61" d="M28.8398 149.012C26.9657 149.663 25.2701 151.634 24.8774 153.623C24.1099 157.453 27.7868 161.283 31.4636 160.483C34.2301 159.888 36.372 156.951 36.1043 154.181C35.9079 152.229 34.4979 150.221 32.713 149.31C31.6242 148.771 29.9464 148.641 28.8398 149.012Z" fill="#B998FC"/>
<path id="Vector_62" d="M51.6862 149.012C49.812 149.663 48.1164 151.634 47.7237 153.623C46.9562 157.453 50.6331 161.283 54.3099 160.483C57.0765 159.888 59.2183 156.951 58.9506 154.181C58.7543 152.229 57.3442 150.221 55.5593 149.31C54.4706 148.771 52.7928 148.641 51.6862 149.012Z" fill="#B998FC"/>
<path id="Vector_63" d="M74.5322 149.012C72.658 149.663 70.9624 151.634 70.5697 153.623C70.1235 155.798 71.1409 158.159 73.1043 159.554C75.0141 160.93 77.1916 160.948 79.1193 159.61C82.2785 157.416 82.7069 153.326 80.0653 150.593C78.5481 148.994 76.3706 148.38 74.5322 149.012Z" fill="#B998FC"/>
<path id="Vector_64" d="M97.3796 149.012C95.5055 149.663 93.8098 151.634 93.4172 153.623C92.971 155.798 93.9883 158.159 95.9517 159.554C97.8615 160.93 100.039 160.948 101.967 159.61C105.126 157.416 105.554 153.326 102.913 150.593C101.396 148.994 99.218 148.38 97.3796 149.012Z" fill="#B998FC"/>
<path id="Vector_65" d="M120.225 149.012C117.53 149.942 115.709 153.028 116.263 155.743C116.709 157.955 118.69 160.019 120.814 160.483C124.259 161.246 127.846 157.843 127.49 154.181C127.293 152.229 125.883 150.221 124.098 149.31C123.009 148.771 121.332 148.641 120.225 149.012Z" fill="#B998FC"/>
<path id="Vector_66" d="M143.071 149.012C140.376 149.942 138.556 153.028 139.109 155.743C139.555 157.955 141.536 160.019 143.66 160.483C147.105 161.246 150.693 157.843 150.336 154.181C150.14 152.229 148.729 150.221 146.945 149.31C145.856 148.771 144.178 148.641 143.071 149.012Z" fill="#B998FC"/>
<path id="Vector_67" d="M165.918 149.012C163.223 149.942 161.402 153.028 161.955 155.743C162.401 157.955 164.383 160.019 166.507 160.483C169.951 161.246 173.539 157.843 173.182 154.181C172.986 152.229 171.576 150.221 169.791 149.31C168.702 148.771 167.024 148.641 165.918 149.012Z" fill="#B998FC"/>
<path id="Vector_68" d="M188.764 149.012C186.069 149.942 184.248 153.028 184.802 155.743C185.248 157.955 187.229 160.019 189.353 160.483C192.798 161.246 196.385 157.843 196.028 154.181C195.832 152.229 194.422 150.221 192.637 149.31C191.548 148.771 189.871 148.641 188.764 149.012Z" fill="#B998FC"/>
<path id="Vector_69" d="M211.611 149.012C209.736 149.663 208.041 151.634 207.648 153.623C206.881 157.453 210.558 161.283 214.234 160.483C217.001 159.888 219.143 156.951 218.875 154.181C218.679 152.229 217.269 150.221 215.484 149.31C214.395 148.771 212.717 148.641 211.611 149.012Z" fill="#B998FC"/>
<path id="Vector_70" d="M234.457 149.012C232.583 149.663 230.887 151.634 230.495 153.623C229.727 157.453 233.404 161.283 237.081 160.483C239.847 159.888 241.989 156.951 241.722 154.181C241.525 152.229 240.115 150.221 238.33 149.31C237.242 148.771 235.564 148.641 234.457 149.012Z" fill="#B998FC"/>
<path id="Vector_71" d="M28.8398 172.81C26.9657 173.46 25.2701 175.431 24.8774 177.42C24.1099 181.25 27.7868 185.08 31.4636 184.281C34.2301 183.686 36.372 180.748 36.1043 177.978C35.9079 176.026 34.4979 174.018 32.713 173.107C31.6242 172.568 29.9464 172.438 28.8398 172.81Z" fill="#B998FC"/>
<path id="Vector_72" d="M51.6862 172.81C49.812 173.46 48.1164 175.431 47.7237 177.42C46.9562 181.25 50.6331 185.08 54.3099 184.281C57.0765 183.686 59.2183 180.748 58.9506 177.978C58.7543 176.026 57.3442 174.018 55.5593 173.107C54.4706 172.568 52.7928 172.438 51.6862 172.81Z" fill="#B998FC"/>
<path id="Vector_73" d="M74.5322 172.81C72.658 173.46 70.9624 175.431 70.5697 177.42C70.1235 179.596 71.1409 181.957 73.1043 183.351C75.0141 184.727 77.1916 184.745 79.1193 183.407C82.2785 181.213 82.7069 177.123 80.0653 174.39C78.5481 172.791 76.3706 172.178 74.5322 172.81Z" fill="#B998FC"/>
<path id="Vector_74" d="M97.3796 172.81C95.5055 173.46 93.8098 175.431 93.4172 177.42C92.971 179.596 93.9883 181.957 95.9517 183.351C97.8615 184.727 100.039 184.745 101.967 183.407C105.126 181.213 105.554 177.123 102.913 174.39C101.396 172.791 99.218 172.178 97.3796 172.81Z" fill="#B998FC"/>
<path id="Vector_75" d="M120.225 172.81C117.53 173.739 115.709 176.825 116.263 179.54C116.709 181.752 118.69 183.816 120.814 184.281C124.259 185.043 127.846 181.641 127.49 177.978C127.293 176.026 125.883 174.018 124.098 173.107C123.009 172.568 121.332 172.438 120.225 172.81Z" fill="#B998FC"/>
<path id="Vector_76" d="M143.071 172.81C140.376 173.739 138.556 176.825 139.109 179.54C139.555 181.752 141.536 183.816 143.66 184.281C147.105 185.043 150.693 181.641 150.336 177.978C150.14 176.026 148.729 174.018 146.945 173.107C145.856 172.568 144.178 172.438 143.071 172.81Z" fill="#B998FC"/>
<path id="Vector_77" d="M165.918 172.81C163.223 173.739 161.402 176.825 161.955 179.54C162.401 181.752 164.383 183.816 166.507 184.281C169.951 185.043 173.539 181.641 173.182 177.978C172.986 176.026 171.576 174.018 169.791 173.107C168.702 172.568 167.024 172.438 165.918 172.81Z" fill="#B998FC"/>
<path id="Vector_78" d="M188.764 172.81C186.069 173.739 184.248 176.825 184.802 179.54C185.248 181.752 187.229 183.816 189.353 184.281C192.798 185.043 196.385 181.641 196.028 177.978C195.832 176.026 194.422 174.018 192.637 173.107C191.548 172.568 189.871 172.438 188.764 172.81Z" fill="#B998FC"/>
<path id="Vector_79" d="M211.611 172.81C209.736 173.46 208.041 175.431 207.648 177.42C206.881 181.25 210.558 185.08 214.234 184.281C217.001 183.686 219.143 180.748 218.875 177.978C218.679 176.026 217.269 174.018 215.484 173.107C214.395 172.568 212.717 172.438 211.611 172.81Z" fill="#B998FC"/>
<path id="Vector_80" d="M234.457 172.81C232.583 173.46 230.887 175.431 230.495 177.42C229.727 181.25 233.404 185.08 237.081 184.281C239.847 183.686 241.989 180.748 241.722 177.978C241.525 176.026 240.115 174.018 238.33 173.107C237.242 172.568 235.564 172.438 234.457 172.81Z" fill="#B998FC"/>
<path id="Vector_81" d="M28.8398 196.607C26.9657 197.258 25.2701 199.228 24.8774 201.218C24.1099 205.048 27.7868 208.878 31.4636 208.078C34.2301 207.483 36.372 204.546 36.1043 201.775C35.9079 199.823 34.4979 197.815 32.713 196.904C31.6242 196.365 29.9464 196.235 28.8398 196.607Z" fill="#B998FC"/>
<path id="Vector_82" d="M51.6862 196.607C49.812 197.258 48.1164 199.228 47.7237 201.218C46.9562 205.048 50.6331 208.878 54.3099 208.078C57.0765 207.483 59.2183 204.546 58.9506 201.775C58.7543 199.823 57.3442 197.815 55.5593 196.904C54.4706 196.365 52.7928 196.235 51.6862 196.607Z" fill="#B998FC"/>
<path id="Vector_83" d="M74.5322 196.607C72.658 197.258 70.9624 199.228 70.5697 201.218C70.1235 203.393 71.1409 205.754 73.1043 207.148C75.0141 208.524 77.1916 208.543 79.1193 207.204C82.2785 205.01 82.7069 200.92 80.0653 198.187C78.5481 196.588 76.3706 195.975 74.5322 196.607Z" fill="#B998FC"/>
<path id="Vector_84" d="M97.3796 196.607C95.5055 197.258 93.8098 199.228 93.4172 201.218C92.971 203.393 93.9883 205.754 95.9517 207.148C97.8615 208.524 100.039 208.543 101.967 207.204C105.126 205.01 105.554 200.92 102.913 198.187C101.396 196.588 99.218 195.975 97.3796 196.607Z" fill="#B998FC"/>
<path id="Vector_85" d="M120.225 196.607C118.351 197.258 116.656 199.228 116.263 201.218C115.496 205.048 119.172 208.878 122.849 208.078C125.616 207.483 127.758 204.546 127.49 201.775C127.293 199.823 125.883 197.815 124.099 196.904C123.01 196.365 121.332 196.235 120.225 196.607Z" fill="#B998FC"/>
<path id="Vector_86" d="M143.072 196.607C141.198 197.258 139.502 199.228 139.109 201.218C138.342 205.048 142.019 208.878 145.696 208.078C148.462 207.483 150.604 204.546 150.336 201.775C150.14 199.823 148.73 197.815 146.945 196.904C145.856 196.365 144.178 196.235 143.072 196.607Z" fill="#B998FC"/>
<path id="Vector_87" d="M165.918 196.607C164.044 197.258 162.348 199.228 161.956 201.218C161.188 205.048 164.865 208.878 168.542 208.078C171.308 207.483 173.45 204.546 173.183 201.775C172.986 199.823 171.576 197.815 169.791 196.904C168.702 196.365 167.025 196.235 165.918 196.607Z" fill="#B998FC"/>
<path id="Vector_88" d="M188.765 196.607C186.89 197.258 185.195 199.228 184.802 201.218C184.035 205.048 187.712 208.878 191.388 208.078C194.155 207.483 196.297 204.546 196.029 201.775C195.833 199.823 194.423 197.815 192.638 196.904C191.549 196.365 189.871 196.235 188.765 196.607Z" fill="#B998FC"/>
<path id="Vector_89" d="M211.611 196.607C209.736 197.258 208.041 199.228 207.648 201.218C206.881 205.048 210.558 208.878 214.234 208.078C217.001 207.483 219.143 204.546 218.875 201.775C218.679 199.823 217.269 197.815 215.484 196.904C214.395 196.365 212.717 196.235 211.611 196.607Z" fill="#B998FC"/>
<path id="Vector_90" d="M234.457 196.607C232.583 197.258 230.887 199.228 230.495 201.218C229.727 205.048 233.404 208.878 237.081 208.078C239.847 207.483 241.989 204.546 241.722 201.775C241.525 199.823 240.115 197.815 238.33 196.904C237.242 196.365 235.564 196.235 234.457 196.607Z" fill="#B998FC"/>
<path id="Vector_91" d="M28.8398 220.404C26.9657 221.055 25.2701 223.026 24.8774 225.015C24.1099 228.845 27.7868 232.675 31.4636 231.875C34.2301 231.281 36.372 228.343 36.1043 225.573C35.9079 223.621 34.4979 221.613 32.713 220.702C31.6242 220.163 29.9464 220.033 28.8398 220.404Z" fill="#B998FC"/>
<path id="Vector_92" d="M51.6862 220.404C49.812 221.055 48.1164 223.026 47.7237 225.015C46.9562 228.845 50.6331 232.675 54.3099 231.875C57.0765 231.281 59.2183 228.343 58.9506 225.573C58.7543 223.621 57.3442 221.613 55.5593 220.702C54.4706 220.163 52.7928 220.033 51.6862 220.404Z" fill="#B998FC"/>
<path id="Vector_93" d="M74.5327 220.404C72.6586 221.055 70.963 223.026 70.5703 225.015C69.8028 228.845 73.4796 232.675 77.1565 231.875C79.923 231.281 82.0649 228.343 81.7972 225.573C81.6008 223.621 80.1908 221.613 78.4059 220.702C77.3171 220.163 75.6393 220.033 74.5327 220.404Z" fill="#B998FC"/>
<path id="Vector_94" d="M97.3788 220.404C95.5046 221.055 93.809 223.026 93.4163 225.015C92.6489 228.845 96.3257 232.675 100.003 231.875C102.769 231.281 104.911 228.343 104.643 225.573C104.447 223.621 103.037 221.613 101.252 220.702C100.163 220.163 98.4854 220.033 97.3788 220.404Z" fill="#B998FC"/>
<path id="Vector_95" d="M120.225 220.404C118.351 221.055 116.656 223.026 116.263 225.015C115.496 228.845 119.172 232.675 122.849 231.875C125.616 231.281 127.758 228.343 127.49 225.573C127.293 223.621 125.883 221.613 124.099 220.702C123.01 220.163 121.332 220.033 120.225 220.404Z" fill="#B998FC"/>
<path id="Vector_96" d="M143.072 220.404C141.198 221.055 139.502 223.026 139.109 225.015C138.342 228.845 142.019 232.675 145.696 231.875C148.462 231.281 150.604 228.343 150.336 225.573C150.14 223.621 148.73 221.613 146.945 220.702C145.856 220.163 144.178 220.033 143.072 220.404Z" fill="#B998FC"/>
<path id="Vector_97" d="M165.918 220.404C164.044 221.055 162.348 223.026 161.956 225.015C161.188 228.845 164.865 232.675 168.542 231.875C171.308 231.281 173.45 228.343 173.183 225.573C172.986 223.621 171.576 221.613 169.791 220.702C168.702 220.163 167.025 220.033 165.918 220.404Z" fill="#B998FC"/>
<path id="Vector_98" d="M188.765 220.404C186.89 221.055 185.195 223.026 184.802 225.015C184.035 228.845 187.712 232.675 191.388 231.875C194.155 231.281 196.297 228.343 196.029 225.573C195.833 223.621 194.423 221.613 192.638 220.702C191.549 220.163 189.871 220.033 188.765 220.404Z" fill="#B998FC"/>
<path id="Vector_99" d="M211.611 220.404C209.736 221.055 208.041 223.026 207.648 225.015C206.881 228.845 210.558 232.675 214.234 231.875C217.001 231.281 219.143 228.343 218.875 225.573C218.679 223.621 217.269 221.613 215.484 220.702C214.395 220.163 212.717 220.033 211.611 220.404Z" fill="#B998FC"/>
<path id="Vector_100" d="M234.457 220.404C232.583 221.055 230.887 223.026 230.495 225.015C229.727 228.845 233.404 232.675 237.081 231.875C239.847 231.281 241.989 228.343 241.722 225.573C241.525 223.621 240.115 221.613 238.33 220.702C237.242 220.163 235.564 220.033 234.457 220.404Z" fill="#B998FC"/>
</g>
</g>
<g id="art_2" clip-path="url(#clip0)" filter="url(#filter0_d)">
<path id="Vector_101" d="M331.694 448.726C467.576 448.726 577.731 442.886 577.731 435.683C577.731 428.479 467.576 422.639 331.694 422.639C195.812 422.639 85.6581 428.479 85.6581 435.683C85.6581 442.886 195.812 448.726 331.694 448.726Z" fill="#3F3D56"/>
<path id="Vector_102" d="M571.966 462.982C625.137 462.982 668.241 460.697 668.241 457.878C668.241 455.06 625.137 452.775 571.966 452.775C518.794 452.775 475.691 455.06 475.691 457.878C475.691 460.697 518.794 462.982 571.966 462.982Z" fill="#3F3D56"/>
<path id="Vector_103" d="M299.821 475.947C352.992 475.947 396.096 473.662 396.096 470.843C396.096 468.025 352.992 465.739 299.821 465.739C246.65 465.739 203.546 468.025 203.546 470.843C203.546 473.662 246.65 475.947 299.821 475.947Z" fill="#3F3D56"/>
<path id="Vector_104" d="M536.138 317.481L544.776 311.184L562.68 287.015C563.191 286.326 563.419 285.452 563.315 284.586C563.212 283.72 562.784 282.933 562.127 282.397C561.47 281.862 560.637 281.622 559.811 281.731C558.985 281.84 558.235 282.288 557.724 282.977L539.82 307.146L536.138 317.481Z" fill="#2F2E41"/>
<path id="Vector_105" d="M613.246 87.7213C613.246 87.7213 602.382 77.5062 587.772 96.7577C573.161 116.009 550.31 125.438 545.065 132.903C545.065 132.903 566.793 123.474 574.285 119.545C581.778 115.616 581.403 116.402 581.403 116.402C581.403 116.402 571.288 123.867 569.415 131.332C567.542 138.796 569.041 145.083 565.669 152.547C562.297 160.012 630.104 157.655 630.104 157.655C630.104 157.655 636.847 145.476 634.974 132.903C633.1 120.331 634.224 89.2928 613.246 87.7213Z" fill="#2F2E41"/>
<path id="Vector_106" d="M591.892 117.974C591.892 117.974 594.515 137.225 583.276 141.547C572.037 145.868 576.158 151.762 576.158 151.762L593.016 160.405L610.998 154.512L616.992 145.083C616.992 145.083 607.252 142.725 609.874 135.653C612.496 128.581 613.246 126.224 613.246 126.224L591.892 117.974Z" fill="#FFB9B9"/>
<path id="Vector_107" opacity="0.1" d="M591.892 117.974C591.892 117.974 594.515 137.225 583.276 141.547C572.037 145.868 576.158 151.762 576.158 151.762L593.016 160.405L610.998 154.512L616.992 145.083C616.992 145.083 607.252 142.725 609.874 135.653C612.496 128.581 613.246 126.224 613.246 126.224L591.892 117.974Z" fill="black"/>
<path id="Vector_108" d="M639.094 172.978C639.094 172.978 636.472 209.123 637.221 210.695C637.97 212.266 637.221 266.877 637.221 266.877C637.221 266.877 642.466 296.344 635.723 297.915C628.979 299.487 630.478 264.913 630.478 264.913L623.735 219.338L624.484 174.156L639.094 172.978Z" fill="#FFB9B9"/>
<path id="Vector_109" opacity="0.1" d="M639.094 172.978C639.094 172.978 636.472 209.123 637.221 210.695C637.97 212.266 637.221 266.877 637.221 266.877C637.221 266.877 642.466 296.344 635.723 297.915C628.979 299.487 630.478 264.913 630.478 264.913L623.735 219.338L624.484 174.156L639.094 172.978Z" fill="black"/>
<path id="Vector_110" d="M566.043 281.807C566.043 281.807 553.681 330.918 554.055 354.884C554.43 378.85 559.3 412.245 559.3 412.245C559.3 412.245 560.049 426.782 558.925 428.354C557.802 429.925 564.545 436.604 564.545 436.604L571.662 432.282L574.285 429.139V426.389C574.285 426.389 570.164 413.031 573.536 402.423C576.907 391.815 578.78 365.099 575.409 356.848L598.635 284.557L566.043 281.807Z" fill="#FFB9B9"/>
<path id="Vector_111" d="M565.294 430.318C565.294 430.318 560.799 424.425 557.802 426.389C554.805 428.354 549.935 441.712 549.935 441.712C549.935 441.712 533.077 458.606 545.065 459.392C557.052 460.177 562.297 455.856 563.796 452.713C565.294 449.57 579.155 441.319 579.155 441.319C579.155 441.319 577.657 426.389 575.409 425.996C573.161 425.603 569.79 431.89 569.79 431.89L565.294 430.318Z" fill="#2F2E41"/>
<path id="Vector_112" d="M606.877 284.95V333.668C606.921 339.579 607.296 345.483 608.001 351.348C609.125 359.991 601.632 424.425 601.632 424.425L602.382 435.818L611.747 435.033L612.871 425.211L626.357 381.993C626.357 381.993 630.853 355.67 628.605 345.848C626.357 336.025 640.218 273.164 640.218 273.164L606.877 284.95Z" fill="#FFB9B9"/>
<path id="Vector_113" d="M599.385 433.068L602.159 432.436C602.159 432.436 604.255 427.568 606.877 428.747C608.722 429.639 610.471 430.738 612.091 432.023L613.246 434.247C613.246 434.247 615.868 440.14 619.239 444.069C622.611 447.998 626.357 456.641 620.738 457.427C615.119 458.213 607.626 458.606 605.379 456.641C603.131 454.677 604.629 451.534 602.382 450.748C600.134 449.962 598.261 447.605 598.635 446.819C599.01 446.033 599.385 433.068 599.385 433.068Z" fill="#2F2E41"/>
<path id="Vector_114" d="M606.877 132.903C616.808 132.903 624.859 124.46 624.859 114.045C624.859 103.629 616.808 95.186 606.877 95.186C596.946 95.186 588.895 103.629 588.895 114.045C588.895 124.46 596.946 132.903 606.877 132.903Z" fill="#FFB9B9"/>
<path id="Vector_115" d="M575.409 144.69L580.358 142.878C580.358 142.878 578.406 146.261 588.896 148.226C599.385 150.19 610.248 150.886 615.118 144.448C615.118 144.448 616.992 143.511 619.614 146.261C622.237 149.012 623.735 148.226 623.735 148.226L621.862 158.441L618.116 177.299L613.246 191.443L599.385 188.3L584.4 176.907L578.781 161.584V147.44L575.409 144.69Z" fill="#7B4CDB"/>
<path id="Vector_116" d="M621.113 150.19L624.859 147.44C624.859 147.44 637.596 149.797 638.345 156.084L628.605 175.728C630.592 181.194 630.457 187.259 628.23 192.622C624.484 201.658 624.859 203.623 624.859 203.623L622.237 215.409L574.66 219.338C574.66 219.338 572.787 214.624 572.038 213.838C571.288 213.052 571.288 210.302 572.038 210.302C572.787 210.302 572.038 209.123 571.288 207.944C570.539 206.766 570.164 206.373 571.288 204.801C572.412 203.23 569.415 189.086 569.415 189.086V173.763L556.678 156.084C556.678 156.084 561.174 149.012 563.421 148.226C565.669 147.44 576.361 144.341 576.361 144.341L578.781 148.077L582.152 176.514L587.022 193.801L607.528 190.147L615.493 176.121L620.738 159.619L621.113 150.19Z" fill="#7B4CDB"/>
<path id="Vector_117" d="M635.348 153.726L638.345 156.083C638.345 156.083 640.967 178.085 640.218 179.657C639.469 181.228 626.357 182.8 625.983 182.014C625.608 181.228 635.348 153.726 635.348 153.726Z" fill="#7B4CDB"/>
<path id="Vector_118" d="M554.055 177.692C554.055 177.692 556.678 213.838 555.929 215.409C555.179 216.981 555.929 271.592 555.929 271.592C555.929 271.592 550.684 301.059 557.427 302.63C564.17 304.202 562.672 269.628 562.672 269.628L569.415 224.053L568.666 178.871L554.055 177.692Z" fill="#FFB9B9"/>
<path id="Vector_119" d="M573.536 142.725L577.282 168.656C577.282 168.656 573.91 207.159 574.66 215.016L575.409 217.374C575.409 217.374 573.91 216.588 573.536 218.159C573.161 219.731 573.536 224.839 573.536 224.839C573.536 224.839 571.288 227.196 570.539 240.161C569.789 253.126 560.799 284.164 564.17 285.343C567.542 286.522 587.771 292.415 598.635 291.236C609.499 290.058 648.459 276.307 648.085 272.771C647.71 269.235 628.979 219.338 628.979 219.338C628.979 219.338 625.608 213.445 625.608 212.659C625.608 211.873 630.103 208.73 628.979 205.587C627.855 202.444 621.861 169.442 621.861 169.442L625.982 145.868L620.363 144.297L616.242 167.084C616.242 167.084 600.134 175.335 583.276 167.87L579.53 141.154L573.536 142.725Z" fill="#2F2E41"/>
<path id="Vector_120" d="M559.675 154.905L556.678 156.083C556.678 156.083 551.059 180.835 552.557 180.835C554.056 180.835 572.037 183.193 572.037 182.407C572.037 181.621 568.666 162.37 568.666 162.37L559.675 154.905Z" fill="#7B4CDB"/>
<path id="Vector_121" d="M592.642 97.5434C592.642 97.5434 620.363 117.581 627.856 108.544C635.348 99.5078 614.744 91.6501 614.744 91.6501L597.512 89.6857L592.642 97.5434Z" fill="#2F2E41"/>
<path id="Vector_122" d="M161.152 48.9948V432.359H475.322V48.9948H161.152ZM177.915 400.601C176.846 400.601 175.8 400.268 174.911 399.645C174.022 399.022 173.329 398.136 172.919 397.1C172.51 396.064 172.403 394.923 172.612 393.823C172.82 392.723 173.335 391.713 174.092 390.92C174.848 390.127 175.811 389.586 176.86 389.368C177.909 389.149 178.997 389.261 179.985 389.69C180.973 390.12 181.817 390.846 182.411 391.779C183.006 392.712 183.323 393.808 183.323 394.93C183.323 396.434 182.753 397.876 181.739 398.94C180.725 400.003 179.349 400.601 177.915 400.601ZM177.915 372.813C176.846 372.813 175.8 372.48 174.911 371.857C174.022 371.234 173.329 370.348 172.919 369.312C172.51 368.275 172.403 367.135 172.612 366.035C172.82 364.935 173.335 363.925 174.092 363.131C174.848 362.338 175.811 361.798 176.86 361.579C177.909 361.361 178.997 361.473 179.985 361.902C180.973 362.331 181.817 363.058 182.411 363.991C183.006 364.923 183.323 366.02 183.323 367.141C183.323 368.646 182.753 370.088 181.739 371.152C180.725 372.215 179.349 372.813 177.915 372.813ZM177.915 345.591C176.846 345.591 175.8 345.259 174.911 344.636C174.022 344.013 173.329 343.127 172.919 342.091C172.51 341.054 172.403 339.914 172.612 338.814C172.82 337.714 173.335 336.703 174.092 335.91C174.848 335.117 175.811 334.577 176.86 334.358C177.909 334.139 178.997 334.252 179.985 334.681C180.973 335.11 181.817 335.837 182.411 336.77C183.006 337.702 183.323 338.799 183.323 339.92C183.323 341.424 182.753 342.867 181.739 343.93C180.725 344.994 179.349 345.591 177.915 345.591ZM177.915 317.803C176.846 317.803 175.8 317.471 174.911 316.847C174.022 316.224 173.329 315.339 172.919 314.302C172.51 313.266 172.403 312.126 172.612 311.026C172.82 309.926 173.335 308.915 174.092 308.122C174.848 307.329 175.811 306.789 176.86 306.57C177.909 306.351 178.997 306.464 179.985 306.893C180.973 307.322 181.817 308.049 182.411 308.981C183.006 309.914 183.323 311.01 183.323 312.132C183.323 313.636 182.753 315.079 181.739 316.142C180.725 317.206 179.349 317.803 177.915 317.803ZM177.915 290.015C176.846 290.015 175.8 289.682 174.911 289.059C174.022 288.436 173.329 287.55 172.919 286.514C172.51 285.478 172.403 284.338 172.612 283.238C172.82 282.137 173.335 281.127 174.092 280.334C174.848 279.541 175.811 279.001 176.86 278.782C177.909 278.563 178.997 278.675 179.985 279.105C180.973 279.534 181.817 280.261 182.411 281.193C183.006 282.126 183.323 283.222 183.323 284.344C183.323 285.848 182.753 287.29 181.739 288.354C180.725 289.418 179.349 290.015 177.915 290.015ZM177.915 262.794C176.846 262.794 175.8 262.461 174.911 261.838C174.022 261.215 173.329 260.329 172.919 259.293C172.51 258.257 172.403 257.117 172.612 256.016C172.82 254.916 173.335 253.906 174.092 253.113C174.848 252.32 175.811 251.78 176.86 251.561C177.909 251.342 178.997 251.454 179.985 251.883C180.973 252.313 181.817 253.04 182.411 253.972C183.006 254.905 183.323 256.001 183.323 257.123C183.323 258.627 182.753 260.069 181.739 261.133C180.725 262.196 179.349 262.794 177.915 262.794ZM177.915 235.006C176.846 235.006 175.8 234.673 174.911 234.05C174.022 233.427 173.329 232.541 172.919 231.505C172.51 230.469 172.403 229.328 172.612 228.228C172.82 227.128 173.335 226.118 174.092 225.325C174.848 224.531 175.811 223.991 176.86 223.773C177.909 223.554 178.997 223.666 179.985 224.095C180.973 224.524 181.817 225.251 182.411 226.184C183.006 227.117 183.323 228.213 183.323 229.335C183.323 230.839 182.753 232.281 181.739 233.345C180.725 234.408 179.349 235.006 177.915 235.006ZM177.915 207.217C176.846 207.217 175.8 206.885 174.911 206.262C174.022 205.639 173.329 204.753 172.919 203.717C172.51 202.68 172.403 201.54 172.612 200.44C172.82 199.34 173.335 198.329 174.092 197.536C174.848 196.743 175.811 196.203 176.86 195.984C177.909 195.765 178.997 195.878 179.985 196.307C180.973 196.736 181.817 197.463 182.411 198.396C183.006 199.328 183.323 200.425 183.323 201.546C183.323 203.05 182.753 204.493 181.739 205.556C180.725 206.62 179.349 207.217 177.915 207.217ZM177.915 179.996C176.846 179.996 175.8 179.664 174.911 179.041C174.022 178.417 173.329 177.532 172.919 176.496C172.51 175.459 172.403 174.319 172.612 173.219C172.82 172.119 173.335 171.108 174.092 170.315C174.848 169.522 175.811 168.982 176.86 168.763C177.909 168.544 178.997 168.657 179.985 169.086C180.973 169.515 181.817 170.242 182.411 171.175C183.006 172.107 183.323 173.204 183.323 174.325C183.323 175.829 182.753 177.272 181.739 178.335C180.725 179.399 179.349 179.996 177.915 179.996ZM177.915 152.208C176.846 152.208 175.8 151.876 174.911 151.252C174.022 150.629 173.329 149.744 172.919 148.707C172.51 147.671 172.403 146.531 172.612 145.431C172.82 144.331 173.335 143.32 174.092 142.527C174.848 141.734 175.811 141.194 176.86 140.975C177.909 140.756 178.997 140.868 179.985 141.298C180.973 141.727 181.817 142.454 182.411 143.386C183.006 144.319 183.323 145.415 183.323 146.537C183.323 148.041 182.753 149.484 181.739 150.547C180.725 151.611 179.349 152.208 177.915 152.208ZM177.915 124.42C176.846 124.42 175.8 124.087 174.911 123.464C174.022 122.841 173.329 121.955 172.919 120.919C172.51 119.883 172.403 118.743 172.612 117.642C172.82 116.542 173.335 115.532 174.092 114.739C174.848 113.946 175.811 113.406 176.86 113.187C177.909 112.968 178.997 113.08 179.985 113.509C180.973 113.939 181.817 114.666 182.411 115.598C183.006 116.531 183.323 117.627 183.323 118.749C183.323 120.253 182.753 121.695 181.739 122.759C180.725 123.822 179.349 124.42 177.915 124.42ZM177.915 97.7659C176.846 97.7659 175.8 97.4333 174.911 96.8102C174.022 96.187 173.329 95.3013 172.919 94.2651C172.51 93.2288 172.403 92.0886 172.612 90.9885C172.82 89.8884 173.335 88.8779 174.092 88.0848C174.848 87.2917 175.811 86.7516 176.86 86.5327C177.909 86.3139 178.997 86.4262 179.985 86.8555C180.973 87.2847 181.817 88.0116 182.411 88.9442C183.006 89.8768 183.323 90.9732 183.323 92.0948C183.323 93.5989 182.753 95.0414 181.739 96.1049C180.725 97.1684 179.349 97.7659 177.915 97.7659Z" fill="#F2F2F2"/>
<path id="Vector_123" opacity="0.3" d="M475.322 78.1089V76.9747H198.331V48.9948H197.25V76.9747H161.152V78.1089H197.25V104.571H161.152V105.705H197.25V132.168H161.152V133.302H197.25V159.764H161.152V160.898H197.25V187.36H161.152V188.494H197.25V214.956H161.152V216.09H197.25V242.552H161.152V243.686H197.25V270.149H161.152V271.283H197.25V297.745H161.152V298.879H197.25V325.341H161.152V326.475H197.25V352.937H161.152V354.071H197.25V380.533H161.152V381.667H197.25V408.129H161.152V409.263H197.25V432.359H198.331V409.263H475.322V408.129H198.331V381.667H475.322V380.533H198.331V354.071H475.322V352.937H198.331V326.475H475.322V325.341H198.331V298.879H475.322V297.745H198.331V271.283H475.322V270.149H198.331V243.686H475.322V242.552H198.331V216.09H475.322V214.956H198.331V188.494H475.322V187.36H198.331V160.898H475.322V159.764H198.331V133.302H475.322V132.168H198.331V105.705H475.322V104.571H198.331V78.1089H475.322Z" fill="#3F3D56"/>
<path id="Vector_124" d="M231.332 147.206C228.065 149.86 224.555 152.167 220.854 154.094C218.462 155.339 215.808 156.447 213.184 155.925C210.561 155.403 208.205 152.591 209.006 149.919C209.284 149.139 209.752 148.45 210.364 147.92C210.977 147.389 211.711 147.037 212.494 146.899C214.069 146.645 215.68 146.888 217.123 147.599C219.764 148.786 221.967 150.837 223.405 153.445C224.138 154.784 224.713 156.32 225.93 157.188C226.911 157.772 228.009 158.105 229.136 158.161C231.788 158.509 234.509 158.853 237.107 158.195C239.704 157.538 242.193 155.653 242.856 152.938" stroke="#3F3D56" stroke-width="2" stroke-miterlimit="10"/>
<path id="Vector_125" d="M251.375 134.267C251.58 142.596 251.469 150.926 251.041 159.254L256.677 158.138C258.754 157.726 261.118 157.097 262.056 155.111C262.931 153.259 262.099 150.921 260.641 149.529C259.184 148.137 257.243 147.472 255.365 146.846L252.288 145.819" stroke="#3F3D56" stroke-width="2" stroke-miterlimit="10"/>
<path id="Vector_126" d="M281.75 143.45C279.692 143.151 277.593 142.864 275.548 143.249C273.504 143.633 271.486 144.801 270.544 146.742C268.802 150.328 271.47 154.744 274.851 156.647C277.665 158.218 280.908 158.73 284.038 158.097" stroke="#3F3D56" stroke-width="2" stroke-miterlimit="10"/>
<path id="Vector_127" d="M236.506 114.922C231.332 120.024 226.157 120.024 220.983 114.922C218.884 112.809 217.218 110.269 216.089 107.457C214.959 104.645 214.39 101.621 214.415 98.5694V48.9948H243.074V98.5694C243.099 101.621 242.53 104.645 241.4 107.457C240.271 110.269 238.606 112.809 236.506 114.922Z" fill="#7B4CDB"/>
<path id="Vector_128" d="M396.752 290.996C396.752 337.402 370.451 353.605 338.001 353.605C337.249 353.605 336.497 353.593 335.751 353.576C334.248 353.542 332.756 353.469 331.285 353.361C301.998 351.189 279.249 334.153 279.249 290.996C279.249 246.342 333.659 189.989 337.757 185.809C337.757 185.808 337.758 185.808 337.758 185.807C337.758 185.806 337.758 185.806 337.759 185.805C337.759 185.805 337.76 185.804 337.761 185.804C337.761 185.804 337.762 185.804 337.763 185.804C337.92 185.639 338.001 185.56 338.001 185.56C338.001 185.56 396.752 244.595 396.752 290.996Z" fill="#7B4CDB"/>
<path id="Vector_129" d="M335.859 346.504L357.348 315.019L335.805 349.964L335.751 353.576C334.248 353.542 332.755 353.469 331.285 353.361L333.599 306.937L333.583 306.575L333.621 306.512L333.842 302.123L312.245 267.093L333.907 298.834L333.961 299.764L335.708 264.688L317.22 228.49L335.935 258.535L337.757 185.809L337.763 185.56V185.804L337.46 243.149L355.867 220.414L337.384 248.089L336.897 279.495L354.088 249.354L336.827 284.117L336.557 301.578L361.501 259.624L336.46 307.669L335.859 346.504Z" fill="#3F3D56"/>
</g>
</g>
<defs>
<filter id="filter0_d" x="81.6581" y="48.9948" width="590.583" height="434.953" filterUnits="userSpaceOnUse" color-interpolation-filters="sRGB">
<feFlood flood-opacity="0" result="BackgroundImageFix"/>
<feColorMatrix in="SourceAlpha" type="matrix" values="0 0 0 0 0 0 0 0 0 0 0 0 0 0 0 0 0 0 127 0" result="hardAlpha"/>
<feOffset dy="4"/>
<feGaussianBlur stdDeviation="2"/>
<feColorMatrix type="matrix" values="0 0 0 0 0.482353 0 0 0 0 0.298039 0 0 0 0 0.858824 0 0 0 0.45 0"/>
<feBlend mode="normal" in2="BackgroundImageFix" result="effect1_dropShadow"/>
<feBlend mode="normal" in="SourceGraphic" in2="effect1_dropShadow" result="shape"/>
</filter>
<clipPath id="clip0">
<rect width="582.583" height="426.953" fill="white" transform="translate(85.6581 48.9948)"/>
</clipPath>
</defs>
</svg>
