<svg width="190" height="199" viewBox="0 0 190 199" fill="none" xmlns="http://www.w3.org/2000/svg">
<path d="M3.55962 0.215515C1.91846 0.787889 0.433595 2.52137 0.0897318 4.27119C-0.582364 7.64002 2.63744 11.0089 5.85725 10.3057C8.27992 9.78234 10.1555 7.19848 9.92109 4.7618C9.74916 3.04468 8.51437 1.2785 6.95136 0.477172C5.99792 0.0029192 4.52869 -0.111555 3.55962 0.215515Z" fill="#B998FC"/>
<path d="M23.5653 0.21552C21.2052 1.0332 19.6109 3.74788 20.0954 6.1355C20.4862 8.08157 22.2212 9.89681 24.0655 10.3057C27.0978 10.9761 30.2394 7.98345 29.9268 4.7618C29.7549 3.04468 28.5201 1.2785 26.9571 0.477176C26.0036 0.00292301 24.5344 -0.111551 23.5653 0.21552Z" fill="#B998FC"/>
<path d="M43.573 0.215515C41.9318 0.787889 40.447 2.52137 40.1031 4.27119C39.431 7.64002 42.6508 11.0089 45.8706 10.3057C48.2933 9.78234 50.1689 7.19848 49.9345 4.7618C49.7625 3.04468 48.5278 1.2785 46.9647 0.477172C46.0113 0.0029192 44.5421 -0.111555 43.573 0.215515Z" fill="#B998FC"/>
<path d="M63.5792 0.215515C61.938 0.787889 60.4531 2.52137 60.1093 4.27119C59.4372 7.64002 62.657 11.0089 65.8768 10.3057C68.2994 9.78234 70.1751 7.19848 69.9406 4.7618C69.7687 3.04468 68.5339 1.2785 66.9709 0.477172C66.0175 0.0029192 64.5482 -0.111555 63.5792 0.215515Z" fill="#B998FC"/>
<path d="M83.586 0.215515C81.9449 0.787889 80.46 2.52137 80.1162 4.27119C79.4441 7.64002 82.6639 11.0089 85.8837 10.3057C88.3063 9.78234 90.182 7.19848 89.9475 4.7618C89.7756 3.04468 88.5408 1.2785 86.9778 0.477172C86.0243 0.0029192 84.5551 -0.111555 83.586 0.215515Z" fill="#B998FC"/>
<path d="M103.593 0.215515C101.951 0.787889 100.467 2.52137 100.123 4.27119C99.4506 7.64002 102.67 11.0089 105.89 10.3057C108.313 9.78234 110.189 7.19848 109.954 4.7618C109.782 3.04468 108.547 1.2785 106.984 0.477172C106.031 0.0029192 104.562 -0.111555 103.593 0.215515Z" fill="#B998FC"/>
<path d="M123.599 0.215515C121.958 0.787889 120.473 2.52137 120.129 4.27119C119.457 7.64002 122.677 11.0089 125.897 10.3057C128.319 9.78234 130.195 7.19848 129.961 4.7618C129.789 3.04468 128.554 1.2785 126.991 0.477172C126.037 0.0029192 124.568 -0.111555 123.599 0.215515Z" fill="#B998FC"/>
<path d="M143.606 0.215515C141.965 0.787889 140.48 2.52137 140.136 4.27119C139.464 7.64002 142.684 11.0089 145.904 10.3057C148.326 9.78234 150.202 7.19848 149.967 4.7618C149.795 3.04468 148.561 1.2785 146.998 0.477172C146.044 0.0029192 144.575 -0.111555 143.606 0.215515Z" fill="#B998FC"/>
<path d="M163.612 0.215509C161.971 0.787884 160.486 2.52136 160.142 4.27119C159.751 6.18455 160.642 8.26145 162.361 9.48797C164.034 10.6981 165.941 10.7145 167.629 9.53703C170.395 7.60731 170.77 4.00953 168.457 1.60556C167.129 0.199156 165.222 -0.34051 163.612 0.215509Z" fill="#B998FC"/>
<path d="M183.619 0.215509C181.978 0.787884 180.493 2.52136 180.149 4.27119C179.758 6.18455 180.649 8.26145 182.368 9.48797C184.041 10.6981 185.948 10.7145 187.636 9.53703C190.402 7.60731 190.777 4.00953 188.464 1.60556C187.136 0.199156 185.229 -0.34051 183.619 0.215509Z" fill="#B998FC"/>
<path d="M3.55962 21.148C1.91846 21.7204 0.433595 23.4539 0.0897318 25.2037C-0.582364 28.5725 2.63744 31.9413 5.85725 31.2381C8.27992 30.7148 10.1555 28.131 9.92109 25.6943C9.74916 23.9772 8.51437 22.211 6.95136 21.4097C5.99792 20.9354 4.52869 20.8209 3.55962 21.148Z" fill="#B998FC"/>
<path d="M23.5653 21.1479C21.2052 21.9656 19.6109 24.6803 20.0954 27.0679C20.4862 29.014 22.2212 30.8292 24.0655 31.2381C27.0978 31.9086 30.2394 28.9159 29.9268 25.6942C29.7549 23.9771 28.5201 22.2109 26.9571 21.4096C26.0036 20.9353 24.5344 20.8209 23.5653 21.1479Z" fill="#B998FC"/>
<path d="M43.573 21.148C41.9318 21.7204 40.447 23.4539 40.1031 25.2037C39.431 28.5725 42.6508 31.9413 45.8706 31.2381C48.2933 30.7148 50.1689 28.131 49.9345 25.6943C49.7625 23.9772 48.5278 22.211 46.9647 21.4097C46.0113 20.9354 44.5421 20.8209 43.573 21.148Z" fill="#B998FC"/>
<path d="M63.5792 21.148C61.938 21.7204 60.4531 23.4539 60.1093 25.2037C59.4372 28.5725 62.657 31.9413 65.8768 31.2381C68.2994 30.7148 70.1751 28.131 69.9406 25.6943C69.7687 23.9772 68.5339 22.211 66.9709 21.4097C66.0175 20.9354 64.5482 20.8209 63.5792 21.148Z" fill="#B998FC"/>
<path d="M83.586 21.148C81.9449 21.7204 80.46 23.4539 80.1162 25.2037C79.4441 28.5725 82.6639 31.9413 85.8837 31.2381C88.3063 30.7148 90.182 28.131 89.9475 25.6943C89.7756 23.9772 88.5408 22.211 86.9778 21.4097C86.0243 20.9354 84.5551 20.8209 83.586 21.148Z" fill="#B998FC"/>
<path d="M103.593 21.148C101.951 21.7204 100.467 23.4539 100.123 25.2037C99.4506 28.5725 102.67 31.9413 105.89 31.2381C108.313 30.7148 110.189 28.131 109.954 25.6943C109.782 23.9772 108.547 22.211 106.984 21.4097C106.031 20.9354 104.562 20.8209 103.593 21.148Z" fill="#B998FC"/>
<path d="M123.599 21.148C121.958 21.7204 120.473 23.4539 120.129 25.2037C119.457 28.5725 122.677 31.9413 125.897 31.2381C128.319 30.7148 130.195 28.131 129.961 25.6943C129.789 23.9772 128.554 22.211 126.991 21.4097C126.037 20.9354 124.568 20.8209 123.599 21.148Z" fill="#B998FC"/>
<path d="M143.606 21.148C141.965 21.7204 140.48 23.4539 140.136 25.2037C139.464 28.5725 142.684 31.9413 145.904 31.2381C148.326 30.7148 150.202 28.131 149.967 25.6943C149.795 23.9772 148.561 22.211 146.998 21.4097C146.044 20.9354 144.575 20.8209 143.606 21.148Z" fill="#B998FC"/>
<path d="M163.612 21.1481C161.971 21.7204 160.486 23.4539 160.142 25.2037C159.751 27.1171 160.642 29.194 162.361 30.4205C164.034 31.6307 165.941 31.647 167.629 30.4696C170.395 28.5399 170.77 24.9421 168.457 22.5381C167.129 21.1317 165.222 20.592 163.612 21.1481Z" fill="#B998FC"/>
<path d="M183.619 21.1481C181.978 21.7204 180.493 23.4539 180.149 25.2037C179.758 27.1171 180.649 29.194 182.368 30.4205C184.041 31.6307 185.948 31.647 187.636 30.4696C190.402 28.5399 190.777 24.9421 188.464 22.5381C187.136 21.1317 185.229 20.592 183.619 21.1481Z" fill="#B998FC"/>
<path d="M3.55962 42.0806C1.91846 42.653 0.433595 44.3865 0.0897318 46.1363C-0.582364 49.5051 2.63744 52.874 5.85725 52.1708C8.27992 51.6474 10.1555 49.0636 9.92109 46.6269C9.74916 44.9098 8.51437 43.1436 6.95136 42.3423C5.99792 41.868 4.52869 41.7535 3.55962 42.0806Z" fill="#B998FC"/>
<path d="M23.5662 42.0806C21.925 42.653 20.4401 44.3865 20.0963 46.1363C19.4242 49.5051 22.644 52.874 25.8638 52.1708C28.2865 51.6474 30.1621 49.0636 29.9276 46.6269C29.7557 44.9098 28.5209 43.1436 26.9579 42.3423C26.0045 41.868 24.5352 41.7535 23.5662 42.0806Z" fill="#B998FC"/>
<path d="M43.573 42.0806C41.9318 42.653 40.447 44.3865 40.1031 46.1363C39.431 49.5051 42.6508 52.874 45.8706 52.1708C48.2933 51.6474 50.1689 49.0636 49.9345 46.6269C49.7625 44.9098 48.5278 43.1436 46.9647 42.3423C46.0113 41.868 44.5421 41.7535 43.573 42.0806Z" fill="#B998FC"/>
<path d="M63.5792 42.0806C61.938 42.653 60.4531 44.3865 60.1093 46.1363C59.4372 49.5051 62.657 52.874 65.8768 52.1708C68.2994 51.6474 70.1751 49.0636 69.9406 46.6269C69.7687 44.9098 68.5339 43.1436 66.9709 42.3423C66.0175 41.868 64.5482 41.7535 63.5792 42.0806Z" fill="#B998FC"/>
<path d="M83.586 42.0806C81.9449 42.653 80.46 44.3865 80.1162 46.1363C79.4441 49.5051 82.6639 52.874 85.8837 52.1708C88.3063 51.6474 90.182 49.0636 89.9475 46.6269C89.7756 44.9098 88.5408 43.1436 86.9778 42.3423C86.0243 41.868 84.5551 41.7535 83.586 42.0806Z" fill="#B998FC"/>
<path d="M103.593 42.0806C101.951 42.653 100.467 44.3865 100.123 46.1363C99.4506 49.5051 102.67 52.874 105.89 52.1708C108.313 51.6474 110.189 49.0636 109.954 46.6269C109.782 44.9098 108.547 43.1436 106.984 42.3423C106.031 41.868 104.562 41.7535 103.593 42.0806Z" fill="#B998FC"/>
<path d="M123.599 42.0806C121.958 42.653 120.473 44.3865 120.129 46.1363C119.457 49.5051 122.677 52.874 125.897 52.1708C128.319 51.6474 130.195 49.0636 129.961 46.6269C129.789 44.9098 128.554 43.1436 126.991 42.3423C126.037 41.868 124.568 41.7535 123.599 42.0806Z" fill="#B998FC"/>
<path d="M143.606 42.0806C141.965 42.653 140.48 44.3865 140.136 46.1363C139.464 49.5051 142.684 52.874 145.904 52.1708C148.326 51.6474 150.202 49.0636 149.967 46.6269C149.795 44.9098 148.561 43.1436 146.998 42.3423C146.044 41.868 144.575 41.7535 143.606 42.0806Z" fill="#B998FC"/>
<path d="M163.612 42.0806C161.971 42.653 160.486 44.3865 160.142 46.1363C159.47 49.5051 162.69 52.874 165.91 52.1708C168.332 51.6474 170.208 49.0636 169.973 46.6269C169.802 44.9098 168.567 43.1436 167.004 42.3423C166.05 41.868 164.581 41.7535 163.612 42.0806Z" fill="#B998FC"/>
<path d="M183.619 42.0806C181.978 42.653 180.493 44.3865 180.149 46.1363C179.477 49.5051 182.697 52.874 185.916 52.1708C188.339 51.6474 190.215 49.0636 189.98 46.6269C189.808 44.9098 188.573 43.1436 187.01 42.3423C186.057 41.868 184.588 41.7535 183.619 42.0806Z" fill="#B998FC"/>
<path d="M3.55962 63.0131C1.91846 63.5854 0.433595 65.3189 0.0897318 67.0687C-0.582364 70.4376 2.63744 73.8064 5.85725 73.1032C8.27992 72.5799 10.1555 69.996 9.92109 67.5593C9.74916 65.8422 8.51437 64.076 6.95136 63.2747C5.99792 62.8005 4.52869 62.686 3.55962 63.0131Z" fill="#B998FC"/>
<path d="M23.5662 63.0131C21.925 63.5854 20.4401 65.3189 20.0963 67.0687C19.4242 70.4376 22.644 73.8064 25.8638 73.1032C28.2865 72.5799 30.1621 69.996 29.9276 67.5593C29.7557 65.8422 28.5209 64.076 26.9579 63.2747C26.0045 62.8005 24.5352 62.686 23.5662 63.0131Z" fill="#B998FC"/>
<path d="M43.573 63.0131C41.9318 63.5854 40.447 65.3189 40.1031 67.0687C39.431 70.4376 42.6508 73.8064 45.8706 73.1032C48.2933 72.5799 50.1689 69.996 49.9345 67.5593C49.7625 65.8422 48.5278 64.076 46.9647 63.2747C46.0113 62.8005 44.5421 62.686 43.573 63.0131Z" fill="#B998FC"/>
<path d="M63.5792 63.0131C61.938 63.5854 60.4531 65.3189 60.1093 67.0687C59.4372 70.4376 62.657 73.8064 65.8768 73.1032C68.2994 72.5799 70.1751 69.996 69.9406 67.5593C69.7687 65.8422 68.5339 64.076 66.9709 63.2747C66.0175 62.8005 64.5482 62.686 63.5792 63.0131Z" fill="#B998FC"/>
<path d="M83.586 63.0131C81.9449 63.5854 80.46 65.3189 80.1162 67.0687C79.4441 70.4376 82.6639 73.8064 85.8837 73.1032C88.3063 72.5799 90.182 69.996 89.9475 67.5593C89.7756 65.8422 88.5408 64.076 86.9778 63.2747C86.0243 62.8005 84.5551 62.686 83.586 63.0131Z" fill="#B998FC"/>
<path d="M103.593 63.0131C101.951 63.5854 100.467 65.3189 100.123 67.0687C99.4506 70.4376 102.67 73.8064 105.89 73.1032C108.313 72.5799 110.189 69.996 109.954 67.5593C109.782 65.8422 108.547 64.076 106.984 63.2747C106.031 62.8005 104.562 62.686 103.593 63.0131Z" fill="#B998FC"/>
<path d="M123.599 63.0131C121.958 63.5854 120.473 65.3189 120.129 67.0687C119.457 70.4376 122.677 73.8064 125.897 73.1032C128.319 72.5799 130.195 69.996 129.961 67.5593C129.789 65.8422 128.554 64.076 126.991 63.2747C126.037 62.8005 124.568 62.686 123.599 63.0131Z" fill="#B998FC"/>
<path d="M143.606 63.0131C141.965 63.5854 140.48 65.3189 140.136 67.0687C139.464 70.4376 142.684 73.8064 145.904 73.1032C148.326 72.5799 150.202 69.996 149.967 67.5593C149.795 65.8422 148.561 64.076 146.998 63.2747C146.044 62.8005 144.575 62.686 143.606 63.0131Z" fill="#B998FC"/>
<path d="M163.612 63.0131C161.971 63.5854 160.486 65.3189 160.142 67.0687C159.47 70.4376 162.69 73.8064 165.91 73.1032C168.332 72.5799 170.208 69.996 169.973 67.5593C169.802 65.8422 168.567 64.076 167.004 63.2747C166.05 62.8005 164.581 62.686 163.612 63.0131Z" fill="#B998FC"/>
<path d="M183.619 63.0131C181.978 63.5854 180.493 65.3189 180.149 67.0687C179.477 70.4376 182.697 73.8064 185.916 73.1032C188.339 72.5799 190.215 69.996 189.98 67.5593C189.808 65.8422 188.573 64.076 187.01 63.2747C186.057 62.8005 184.588 62.686 183.619 63.0131Z" fill="#B998FC"/>
<path d="M3.55962 83.9456C1.91846 84.518 0.433595 86.2515 0.0897318 88.0013C-0.582364 91.3701 2.63744 94.739 5.85725 94.0358C8.27992 93.5124 10.1555 90.9286 9.92109 88.4919C9.74916 86.7748 8.51437 85.0086 6.95136 84.2073C5.99792 83.733 4.52869 83.6186 3.55962 83.9456Z" fill="#B998FC"/>
<path d="M23.5662 83.9456C21.925 84.518 20.4401 86.2515 20.0963 88.0013C19.4242 91.3701 22.644 94.739 25.8638 94.0358C28.2865 93.5124 30.1621 90.9286 29.9276 88.4919C29.7557 86.7748 28.5209 85.0086 26.9579 84.2073C26.0045 83.733 24.5352 83.6186 23.5662 83.9456Z" fill="#B998FC"/>
<path d="M43.573 83.9456C41.9318 84.518 40.447 86.2515 40.1031 88.0013C39.431 91.3701 42.6508 94.739 45.8706 94.0358C48.2933 93.5124 50.1689 90.9286 49.9345 88.4919C49.7625 86.7748 48.5278 85.0086 46.9647 84.2073C46.0113 83.733 44.5421 83.6186 43.573 83.9456Z" fill="#B998FC"/>
<path d="M63.5792 83.9456C61.938 84.518 60.4531 86.2515 60.1093 88.0013C59.4372 91.3701 62.657 94.739 65.8768 94.0358C68.2994 93.5124 70.1751 90.9286 69.9406 88.4919C69.7687 86.7748 68.5339 85.0086 66.9709 84.2073C66.0175 83.733 64.5482 83.6186 63.5792 83.9456Z" fill="#B998FC"/>
<path d="M83.586 83.9456C81.9449 84.518 80.46 86.2515 80.1162 88.0013C79.4441 91.3701 82.6639 94.739 85.8837 94.0358C88.3063 93.5124 90.182 90.9286 89.9475 88.4919C89.7756 86.7748 88.5408 85.0086 86.9778 84.2073C86.0243 83.733 84.5551 83.6186 83.586 83.9456Z" fill="#B998FC"/>
<path d="M103.593 83.9456C101.951 84.518 100.467 86.2515 100.123 88.0013C99.4506 91.3701 102.67 94.739 105.89 94.0358C108.313 93.5124 110.189 90.9286 109.954 88.4919C109.782 86.7748 108.547 85.0086 106.984 84.2073C106.031 83.733 104.562 83.6186 103.593 83.9456Z" fill="#B998FC"/>
<path d="M123.599 83.9456C121.958 84.518 120.473 86.2515 120.129 88.0013C119.457 91.3701 122.677 94.739 125.897 94.0358C128.319 93.5124 130.195 90.9286 129.961 88.4919C129.789 86.7748 128.554 85.0086 126.991 84.2073C126.037 83.733 124.568 83.6186 123.599 83.9456Z" fill="#B998FC"/>
<path d="M143.606 83.9456C141.965 84.518 140.48 86.2515 140.136 88.0013C139.464 91.3701 142.684 94.739 145.904 94.0358C148.326 93.5124 150.202 90.9286 149.967 88.4919C149.795 86.7748 148.561 85.0086 146.998 84.2073C146.044 83.733 144.575 83.6186 143.606 83.9456Z" fill="#B998FC"/>
<path d="M163.612 83.9456C161.971 84.518 160.486 86.2515 160.142 88.0013C159.47 91.3701 162.69 94.739 165.91 94.0358C168.332 93.5124 170.208 90.9286 169.973 88.4919C169.802 86.7748 168.567 85.0086 167.004 84.2073C166.05 83.733 164.581 83.6186 163.612 83.9456Z" fill="#B998FC"/>
<path d="M183.619 83.9456C181.978 84.518 180.493 86.2515 180.149 88.0013C179.477 91.3701 182.697 94.739 185.916 94.0358C188.339 93.5124 190.215 90.9286 189.98 88.4919C189.808 86.7748 188.573 85.0086 187.01 84.2073C186.057 83.733 184.588 83.6186 183.619 83.9456Z" fill="#B998FC"/>
<path d="M3.55962 104.878C1.91846 105.45 0.433595 107.184 0.0897318 108.934C-0.582364 112.303 2.63744 115.671 5.85725 114.968C8.27992 114.445 10.1555 111.861 9.92109 109.424C9.74916 107.707 8.51437 105.941 6.95136 105.14C5.99792 104.666 4.52869 104.551 3.55962 104.878Z" fill="#B998FC"/>
<path d="M23.5662 104.878C21.925 105.45 20.4401 107.184 20.0963 108.934C19.4242 112.303 22.644 115.671 25.8638 114.968C28.2865 114.445 30.1621 111.861 29.9276 109.424C29.7557 107.707 28.5209 105.941 26.9579 105.14C26.0045 104.666 24.5352 104.551 23.5662 104.878Z" fill="#B998FC"/>
<path d="M43.573 104.878C41.9318 105.45 40.447 107.184 40.1031 108.934C39.431 112.303 42.6508 115.671 45.8706 114.968C48.2933 114.445 50.1689 111.861 49.9345 109.424C49.7625 107.707 48.5278 105.941 46.9647 105.14C46.0113 104.666 44.5421 104.551 43.573 104.878Z" fill="#B998FC"/>
<path d="M63.5792 104.878C61.938 105.45 60.4531 107.184 60.1093 108.934C59.4372 112.303 62.657 115.671 65.8768 114.968C68.2994 114.445 70.1751 111.861 69.9406 109.424C69.7687 107.707 68.5339 105.941 66.9709 105.14C66.0175 104.666 64.5482 104.551 63.5792 104.878Z" fill="#B998FC"/>
<path d="M83.586 104.878C81.9449 105.45 80.46 107.184 80.1162 108.934C79.4441 112.303 82.6639 115.671 85.8837 114.968C88.3063 114.445 90.182 111.861 89.9475 109.424C89.7756 107.707 88.5408 105.941 86.9778 105.14C86.0243 104.666 84.5551 104.551 83.586 104.878Z" fill="#B998FC"/>
<path d="M103.593 104.878C101.951 105.45 100.467 107.184 100.123 108.934C99.4506 112.303 102.67 115.671 105.89 114.968C108.313 114.445 110.189 111.861 109.954 109.424C109.782 107.707 108.547 105.941 106.984 105.14C106.031 104.666 104.562 104.551 103.593 104.878Z" fill="#B998FC"/>
<path d="M123.599 104.878C121.958 105.45 120.473 107.184 120.129 108.934C119.457 112.303 122.677 115.671 125.897 114.968C128.319 114.445 130.195 111.861 129.961 109.424C129.789 107.707 128.554 105.941 126.991 105.14C126.037 104.666 124.568 104.551 123.599 104.878Z" fill="#B998FC"/>
<path d="M143.606 104.878C141.965 105.45 140.48 107.184 140.136 108.934C139.464 112.303 142.684 115.671 145.904 114.968C148.326 114.445 150.202 111.861 149.967 109.424C149.795 107.707 148.561 105.941 146.998 105.14C146.044 104.666 144.575 104.551 143.606 104.878Z" fill="#B998FC"/>
<path d="M163.612 104.878C161.971 105.45 160.486 107.184 160.142 108.934C159.47 112.303 162.69 115.671 165.91 114.968C168.332 114.445 170.208 111.861 169.973 109.424C169.802 107.707 168.567 105.941 167.004 105.14C166.05 104.666 164.581 104.551 163.612 104.878Z" fill="#B998FC"/>
<path d="M183.619 104.878C181.978 105.45 180.493 107.184 180.149 108.934C179.477 112.303 182.697 115.671 185.916 114.968C188.339 114.445 190.215 111.861 189.98 109.424C189.808 107.707 188.573 105.941 187.01 105.14C186.057 104.666 184.588 104.551 183.619 104.878Z" fill="#B998FC"/>
<path d="M3.55962 125.811C1.91846 126.383 0.433595 128.117 0.0897318 129.866C-0.582364 133.235 2.63744 136.604 5.85725 135.901C8.27992 135.377 10.1555 132.794 9.92109 130.357C9.74916 128.64 8.51437 126.874 6.95136 126.072C5.99792 125.598 4.52869 125.484 3.55962 125.811Z" fill="#B998FC"/>
<path d="M23.5662 125.811C21.925 126.383 20.4401 128.117 20.0963 129.866C19.4242 133.235 22.644 136.604 25.8638 135.901C28.2865 135.377 30.1621 132.794 29.9276 130.357C29.7557 128.64 28.5209 126.874 26.9579 126.072C26.0045 125.598 24.5352 125.484 23.5662 125.811Z" fill="#B998FC"/>
<path d="M43.5724 125.811C41.9312 126.383 40.4464 128.117 40.1025 129.866C39.7117 131.78 40.6027 133.857 42.322 135.083C43.9944 136.293 45.9013 136.31 47.5893 135.132C50.3559 133.202 50.731 129.605 48.4177 127.201C47.0892 125.794 45.1823 125.255 43.5724 125.811Z" fill="#B998FC"/>
<path d="M63.5802 125.811C61.939 126.383 60.4542 128.117 60.1103 129.866C59.7196 131.78 60.6105 133.857 62.3298 135.083C64.0022 136.293 65.9091 136.31 67.5971 135.132C70.3637 133.202 70.7388 129.605 68.4255 127.201C67.097 125.794 65.1901 125.255 63.5802 125.811Z" fill="#B998FC"/>
<path d="M83.586 125.811C81.2258 126.628 79.6315 129.343 80.1161 131.731C80.5068 133.677 82.2418 135.492 84.1018 135.901C87.1184 136.571 90.26 133.579 89.9474 130.357C89.7755 128.64 88.5407 126.874 86.9777 126.072C86.0243 125.598 84.555 125.484 83.586 125.811Z" fill="#B998FC"/>
<path d="M103.593 125.811C101.232 126.628 99.6381 129.343 100.123 131.731C100.513 133.677 102.248 135.492 104.108 135.901C107.125 136.571 110.267 133.579 109.954 130.357C109.782 128.64 108.547 126.874 106.984 126.072C106.031 125.598 104.562 125.484 103.593 125.811Z" fill="#B998FC"/>
<path d="M123.599 125.811C121.239 126.628 119.645 129.343 120.129 131.731C120.52 133.677 122.255 135.492 124.115 135.901C127.131 136.571 130.273 133.579 129.96 130.357C129.789 128.64 128.554 126.874 126.991 126.072C126.037 125.598 124.568 125.484 123.599 125.811Z" fill="#B998FC"/>
<path d="M143.605 125.811C141.245 126.628 139.65 129.343 140.135 131.731C140.526 133.677 142.261 135.492 144.121 135.901C147.137 136.571 150.279 133.579 149.966 130.357C149.794 128.64 148.56 126.874 146.997 126.072C146.043 125.598 144.574 125.484 143.605 125.811Z" fill="#B998FC"/>
<path d="M163.612 125.811C161.971 126.383 160.486 128.117 160.142 129.866C159.47 133.235 162.69 136.604 165.91 135.901C168.332 135.377 170.208 132.794 169.973 130.357C169.802 128.64 168.567 126.874 167.004 126.072C166.05 125.598 164.581 125.484 163.612 125.811Z" fill="#B998FC"/>
<path d="M183.619 125.811C181.978 126.383 180.493 128.117 180.149 129.866C179.477 133.235 182.697 136.604 185.916 135.901C188.339 135.377 190.215 132.794 189.98 130.357C189.808 128.64 188.573 126.874 187.01 126.072C186.057 125.598 184.588 125.484 183.619 125.811Z" fill="#B998FC"/>
<path d="M3.55962 146.743C1.91846 147.316 0.433595 149.049 0.0897318 150.799C-0.582364 154.168 2.63744 157.537 5.85725 156.833C8.27992 156.31 10.1555 153.726 9.92109 151.29C9.74916 149.572 8.51437 147.806 6.95136 147.005C5.99792 146.531 4.52869 146.416 3.55962 146.743Z" fill="#B998FC"/>
<path d="M23.5662 146.743C21.925 147.316 20.4401 149.049 20.0963 150.799C19.4242 154.168 22.644 157.537 25.8638 156.833C28.2865 156.31 30.1621 153.726 29.9276 151.289C29.7557 149.572 28.5209 147.806 26.9579 147.005C26.0045 146.531 24.5352 146.416 23.5662 146.743Z" fill="#B998FC"/>
<path d="M43.5724 146.743C41.9312 147.315 40.4464 149.049 40.1025 150.799C39.7117 152.712 40.6027 154.789 42.322 156.016C43.9944 157.226 45.9013 157.242 47.5893 156.065C50.3559 154.135 50.731 150.537 48.4177 148.133C47.0892 146.727 45.1823 146.187 43.5724 146.743Z" fill="#B998FC"/>
<path d="M63.5802 146.743C61.939 147.315 60.4542 149.049 60.1103 150.799C59.7196 152.712 60.6105 154.789 62.3298 156.016C64.0022 157.226 65.9091 157.242 67.5971 156.065C70.3637 154.135 70.7388 150.537 68.4255 148.133C67.097 146.727 65.1901 146.187 63.5802 146.743Z" fill="#B998FC"/>
<path d="M83.586 146.743C81.2258 147.561 79.6315 150.276 80.1161 152.663C80.5068 154.609 82.2418 156.424 84.1018 156.833C87.1184 157.504 90.26 154.511 89.9474 151.289C89.7755 149.572 88.5407 147.806 86.9777 147.005C86.0243 146.531 84.555 146.416 83.586 146.743Z" fill="#B998FC"/>
<path d="M103.593 146.743C101.232 147.561 99.6381 150.276 100.123 152.663C100.513 154.609 102.248 156.424 104.108 156.833C107.125 157.504 110.267 154.511 109.954 151.289C109.782 149.572 108.547 147.806 106.984 147.005C106.031 146.531 104.562 146.416 103.593 146.743Z" fill="#B998FC"/>
<path d="M123.599 146.743C121.239 147.561 119.645 150.276 120.129 152.663C120.52 154.609 122.255 156.424 124.115 156.833C127.131 157.504 130.273 154.511 129.96 151.289C129.789 149.572 128.554 147.806 126.991 147.005C126.037 146.531 124.568 146.416 123.599 146.743Z" fill="#B998FC"/>
<path d="M143.605 146.743C141.245 147.561 139.65 150.276 140.135 152.663C140.526 154.609 142.261 156.424 144.121 156.833C147.137 157.504 150.279 154.511 149.966 151.289C149.794 149.572 148.56 147.806 146.997 147.005C146.043 146.531 144.574 146.416 143.605 146.743Z" fill="#B998FC"/>
<path d="M163.612 146.743C161.971 147.316 160.486 149.049 160.142 150.799C159.47 154.168 162.69 157.537 165.91 156.833C168.332 156.31 170.208 153.726 169.973 151.289C169.802 149.572 168.567 147.806 167.004 147.005C166.05 146.531 164.581 146.416 163.612 146.743Z" fill="#B998FC"/>
<path d="M183.619 146.743C181.978 147.316 180.493 149.049 180.149 150.799C179.477 154.168 182.697 157.537 185.916 156.833C188.339 156.31 190.215 153.726 189.98 151.289C189.808 149.572 188.573 147.806 187.01 147.005C186.057 146.531 184.588 146.416 183.619 146.743Z" fill="#B998FC"/>
<path d="M3.55962 167.676C1.91846 168.248 0.433595 169.982 0.0897318 171.731C-0.582364 175.1 2.63744 178.469 5.85725 177.766C8.27992 177.243 10.1555 174.659 9.92109 172.222C9.74916 170.505 8.51437 168.739 6.95136 167.937C5.99792 167.463 4.52869 167.349 3.55962 167.676Z" fill="#B998FC"/>
<path d="M23.5662 167.676C21.925 168.248 20.4401 169.982 20.0963 171.731C19.4242 175.1 22.644 178.469 25.8638 177.766C28.2865 177.243 30.1621 174.659 29.9276 172.222C29.7557 170.505 28.5209 168.739 26.9579 167.937C26.0045 167.463 24.5352 167.349 23.5662 167.676Z" fill="#B998FC"/>
<path d="M43.5724 167.676C41.9312 168.248 40.4464 169.982 40.1025 171.731C39.7117 173.645 40.6027 175.722 42.322 176.948C43.9944 178.158 45.9013 178.175 47.5893 176.997C50.3559 175.068 50.731 171.47 48.4177 169.066C47.0892 167.659 45.1823 167.12 43.5724 167.676Z" fill="#B998FC"/>
<path d="M63.5802 167.676C61.939 168.248 60.4542 169.982 60.1103 171.731C59.7196 173.645 60.6105 175.722 62.3298 176.948C64.0022 178.158 65.9091 178.175 67.5971 176.997C70.3637 175.068 70.7388 171.47 68.4255 169.066C67.097 167.659 65.1901 167.12 63.5802 167.676Z" fill="#B998FC"/>
<path d="M83.586 167.676C81.9449 168.248 80.46 169.982 80.1162 171.731C79.4441 175.1 82.6639 178.469 85.8837 177.766C88.3063 177.243 90.182 174.659 89.9475 172.222C89.7756 170.505 88.5408 168.739 86.9778 167.937C86.0243 167.463 84.5551 167.349 83.586 167.676Z" fill="#B998FC"/>
<path d="M103.593 167.676C101.951 168.248 100.467 169.982 100.123 171.731C99.4506 175.1 102.67 178.469 105.89 177.766C108.313 177.243 110.189 174.659 109.954 172.222C109.782 170.505 108.547 168.739 106.984 167.937C106.031 167.463 104.562 167.349 103.593 167.676Z" fill="#B998FC"/>
<path d="M123.599 167.676C121.958 168.248 120.473 169.982 120.129 171.731C119.457 175.1 122.677 178.469 125.897 177.766C128.319 177.243 130.195 174.659 129.961 172.222C129.789 170.505 128.554 168.739 126.991 167.937C126.037 167.463 124.568 167.349 123.599 167.676Z" fill="#B998FC"/>
<path d="M143.606 167.676C141.965 168.248 140.48 169.982 140.136 171.731C139.464 175.1 142.684 178.469 145.904 177.766C148.326 177.243 150.202 174.659 149.967 172.222C149.795 170.505 148.561 168.739 146.998 167.937C146.044 167.463 144.575 167.349 143.606 167.676Z" fill="#B998FC"/>
<path d="M163.612 167.676C161.971 168.248 160.486 169.982 160.142 171.731C159.47 175.1 162.69 178.469 165.91 177.766C168.332 177.243 170.208 174.659 169.973 172.222C169.802 170.505 168.567 168.739 167.004 167.937C166.05 167.463 164.581 167.349 163.612 167.676Z" fill="#B998FC"/>
<path d="M183.619 167.676C181.978 168.248 180.493 169.982 180.149 171.731C179.477 175.1 182.697 178.469 185.916 177.766C188.339 177.243 190.215 174.659 189.98 172.222C189.808 170.505 188.573 168.739 187.01 167.937C186.057 167.463 184.588 167.349 183.619 167.676Z" fill="#B998FC"/>
<path d="M3.55962 188.608C1.91846 189.181 0.433595 190.914 0.0897318 192.664C-0.582364 196.033 2.63744 199.402 5.85725 198.698C8.27992 198.175 10.1555 195.591 9.92109 193.154C9.74916 191.437 8.51437 189.671 6.95136 188.87C5.99792 188.396 4.52869 188.281 3.55962 188.608Z" fill="#B998FC"/>
<path d="M23.5662 188.608C21.925 189.181 20.4401 190.914 20.0963 192.664C19.4242 196.033 22.644 199.402 25.8638 198.698C28.2865 198.175 30.1621 195.591 29.9276 193.154C29.7557 191.437 28.5209 189.671 26.9579 188.87C26.0045 188.396 24.5352 188.281 23.5662 188.608Z" fill="#B998FC"/>
<path d="M43.573 188.608C41.9318 189.181 40.447 190.914 40.1031 192.664C39.431 196.033 42.6508 199.402 45.8706 198.698C48.2933 198.175 50.1689 195.591 49.9345 193.154C49.7625 191.437 48.5278 189.671 46.9647 188.87C46.0113 188.396 44.5421 188.281 43.573 188.608Z" fill="#B998FC"/>
<path d="M63.5792 188.608C61.938 189.181 60.4531 190.914 60.1093 192.664C59.4372 196.033 62.657 199.402 65.8768 198.698C68.2994 198.175 70.1751 195.591 69.9406 193.154C69.7687 191.437 68.5339 189.671 66.9709 188.87C66.0175 188.396 64.5482 188.281 63.5792 188.608Z" fill="#B998FC"/>
<path d="M83.586 188.608C81.9449 189.181 80.46 190.914 80.1162 192.664C79.4441 196.033 82.6639 199.402 85.8837 198.698C88.3063 198.175 90.182 195.591 89.9475 193.154C89.7756 191.437 88.5408 189.671 86.9778 188.87C86.0243 188.396 84.5551 188.281 83.586 188.608Z" fill="#B998FC"/>
<path d="M103.593 188.608C101.951 189.181 100.467 190.914 100.123 192.664C99.4506 196.033 102.67 199.402 105.89 198.698C108.313 198.175 110.189 195.591 109.954 193.154C109.782 191.437 108.547 189.671 106.984 188.87C106.031 188.396 104.562 188.281 103.593 188.608Z" fill="#B998FC"/>
<path d="M123.599 188.608C121.958 189.181 120.473 190.914 120.129 192.664C119.457 196.033 122.677 199.402 125.897 198.698C128.319 198.175 130.195 195.591 129.961 193.154C129.789 191.437 128.554 189.671 126.991 188.87C126.037 188.396 124.568 188.281 123.599 188.608Z" fill="#B998FC"/>
<path d="M143.606 188.608C141.965 189.181 140.48 190.914 140.136 192.664C139.464 196.033 142.684 199.402 145.904 198.698C148.326 198.175 150.202 195.591 149.967 193.154C149.795 191.437 148.561 189.671 146.998 188.87C146.044 188.396 144.575 188.281 143.606 188.608Z" fill="#B998FC"/>
<path d="M163.612 188.608C161.971 189.181 160.486 190.914 160.142 192.664C159.47 196.033 162.69 199.402 165.91 198.698C168.332 198.175 170.208 195.591 169.973 193.154C169.802 191.437 168.567 189.671 167.004 188.87C166.05 188.396 164.581 188.281 163.612 188.608Z" fill="#B998FC"/>
<path d="M183.619 188.608C181.978 189.181 180.493 190.914 180.149 192.664C179.477 196.033 182.697 199.402 185.916 198.698C188.339 198.175 190.215 195.591 189.98 193.154C189.808 191.437 188.573 189.671 187.01 188.87C186.057 188.396 184.588 188.281 183.619 188.608Z" fill="#B998FC"/>
</svg>
