<svg width="142" height="52" viewBox="0 0 142 52" fill="none" xmlns="http://www.w3.org/2000/svg">
<path d="M16.4365 22.8955C18.2367 23.2373 19.8431 23.6589 21.2559 24.1602C22.6914 24.6615 23.8991 25.1969 24.8789 25.7666C25.8587 26.3135 26.7018 26.9515 27.4082 27.6807C28.1146 28.4098 28.6615 29.1162 29.0488 29.7998C29.459 30.4834 29.778 31.2695 30.0059 32.1582C30.2337 33.0469 30.3818 33.8672 30.4502 34.6191C30.5186 35.3483 30.5527 36.2028 30.5527 37.1826C30.5527 39.0055 30.2109 40.7487 29.5273 42.4121C28.8438 44.0755 27.9893 45.4541 26.9639 46.5479C25.9613 47.6188 24.9131 48.4733 23.8193 49.1113C22.7256 49.7493 21.7344 50.0684 20.8457 50.0684C20.3672 50.0684 20.1279 49.8405 20.1279 49.3848C20.1279 49.0885 20.3102 48.7581 20.6748 48.3936C21.8369 47.277 22.6914 45.9212 23.2383 44.3262C23.7852 42.7311 24.0586 41.2842 24.0586 39.9854C24.0586 39.2106 24.0472 38.6068 24.0244 38.1738C24.0016 37.7409 23.9219 37.1484 23.7852 36.3965C23.6712 35.6445 23.4889 35.0407 23.2383 34.585C23.0104 34.1064 22.6572 33.571 22.1787 32.9785C21.7002 32.3633 21.1191 31.862 20.4355 31.4746C19.752 31.0645 18.8747 30.6885 17.8037 30.3467C16.7555 29.9821 15.5479 29.6973 14.1807 29.4922C12.4489 29.2415 10.888 28.9111 9.49805 28.501C8.13086 28.068 6.99154 27.6123 6.08008 27.1338C5.19141 26.6553 4.41667 26.097 3.75586 25.459C3.11784 24.821 2.62793 24.2285 2.28613 23.6816C1.94434 23.112 1.68229 22.474 1.5 21.7676C1.31771 21.0612 1.20378 20.4801 1.1582 20.0244C1.11263 19.5459 1.08984 19.0104 1.08984 18.418C1.08984 17.7344 1.19238 17.085 1.39746 16.4697C1.71647 15.4899 2.44564 14.5557 3.58496 13.667C4.72428 12.7783 5.71549 12.334 6.55859 12.334C6.96875 12.334 7.27637 12.4251 7.48145 12.6074C7.70931 12.7669 7.82324 13.1201 7.82324 13.667C7.82324 15.3988 7.92578 16.766 8.13086 17.7686C8.35872 18.7712 8.82585 19.6143 9.53223 20.2979C10.2386 20.9814 11.0931 21.4941 12.0957 21.8359C13.0983 22.1777 14.5452 22.5309 16.4365 22.8955ZM10.8652 51.0596C9.13346 51.0596 7.60677 50.8317 6.28516 50.376C4.98633 49.943 3.56217 49.0202 2.0127 47.6074C1.26074 46.9238 0.884766 46.2061 0.884766 45.4541C0.884766 44.8389 1.13542 44.2806 1.63672 43.7793C3.14062 42.2754 4.49642 41.5234 5.7041 41.5234C6.47884 41.5234 7.34473 41.9222 8.30176 42.7197C9.62337 43.859 10.7171 44.5996 11.583 44.9414C12.4717 45.2832 13.5085 45.4541 14.6934 45.4541C15.696 45.4541 16.6188 45.2604 17.4619 44.873C18.3278 44.4857 18.8405 44.292 19 44.292C19.5697 44.292 19.8545 44.6566 19.8545 45.3857C19.8545 45.7503 19.7064 46.2174 19.4102 46.7871C19.1139 47.3568 18.6468 47.9834 18.0088 48.667C17.3936 49.3278 16.4479 49.8861 15.1719 50.3418C13.9186 50.8203 12.4831 51.0596 10.8652 51.0596ZM27.8867 5.05371C27.8867 5.94238 27.2943 6.83105 26.1094 7.71973C24.9473 8.6084 23.9333 9.05273 23.0674 9.05273C22.5205 9.05273 21.7799 8.84766 20.8457 8.4375C19.9115 8.02734 18.8519 7.61719 17.667 7.20703C16.5049 6.79688 15.3656 6.5918 14.249 6.5918C12.335 6.5918 10.5462 6.95638 8.88281 7.68555C7.24219 8.39193 5.48763 9.51986 3.61914 11.0693C2.38867 12.0947 1.61393 12.6074 1.29492 12.6074C0.79362 12.6074 0.542969 12.334 0.542969 11.7871C0.542969 11.4225 0.75944 10.8643 1.19238 10.1123C1.62533 9.36035 2.03548 8.74512 2.42285 8.2666C6.43327 3.41309 11.7539 0.986328 18.3848 0.986328C19.638 0.986328 20.9824 1.14583 22.418 1.46484C23.8535 1.76107 25.1182 2.23958 26.2119 2.90039C27.3285 3.53841 27.8867 4.25618 27.8867 5.05371ZM44.4297 36.4648V45.249C44.4297 46.3656 44.1904 47.1973 43.7119 47.7441C43.1423 48.4277 42.3333 49.0316 41.2852 49.5557C40.2598 50.0798 39.4167 50.3418 38.7559 50.3418C37.9583 50.3418 37.5596 49.8519 37.5596 48.8721V36.4648C37.5596 35.6445 37.8444 35.0863 38.4141 34.79C39.0065 34.4938 39.8838 34.3457 41.0459 34.3457C42.2992 34.3457 43.1764 34.4938 43.6777 34.79C44.179 35.0635 44.4297 35.6217 44.4297 36.4648ZM37.5596 29.7998V11.582C37.5596 10.7617 37.833 10.2262 38.3799 9.97559C38.9495 9.70215 39.8154 9.56543 40.9775 9.56543C42.2536 9.56543 43.1423 9.70215 43.6436 9.97559C44.1676 10.2262 44.4297 10.7617 44.4297 11.582V25.835C44.4297 26.8148 44.8626 27.3047 45.7285 27.3047H51.4365C52.4163 27.3047 52.9062 27.5895 52.9062 28.1592C52.9062 28.7061 52.4049 29.3441 51.4023 30.0732C50.4225 30.7796 49.1579 31.3721 47.6084 31.8506C46.6514 32.1468 44.2816 32.2949 40.499 32.2949C39.3369 32.2949 38.5508 32.0898 38.1406 31.6797C37.7533 31.2695 37.5596 30.6429 37.5596 29.7998ZM59.5371 18.999C59.5371 11.4111 55.0368 7.61719 46.0361 7.61719H38.8926C38.5964 7.61719 38.3571 7.60579 38.1748 7.58301C38.0153 7.56022 37.8672 7.49186 37.7305 7.37793C37.6165 7.24121 37.5596 7.05892 37.5596 6.83105C37.5596 5.87402 38.209 4.84863 39.5078 3.75488C40.8294 2.66113 42.1396 2.09147 43.4385 2.0459L47.0615 2.01172L51.4365 2.0459C52.667 2.06868 53.9089 2.2168 55.1621 2.49023C56.4382 2.74089 57.7939 3.23079 59.2295 3.95996C60.665 4.68913 61.9297 5.61198 63.0234 6.72852C64.1172 7.84505 65.0173 9.34896 65.7236 11.2402C66.4528 13.1315 66.8174 15.2734 66.8174 17.666C66.8174 18.6003 66.6921 19.6257 66.4414 20.7422C66.2135 21.8587 65.7692 23.1006 65.1084 24.4678C64.4704 25.835 63.6615 27.0882 62.6816 28.2275C61.7246 29.3441 60.4258 30.3467 58.7852 31.2354C57.1445 32.1012 55.2988 32.6595 53.248 32.9102H53.043C52.4277 32.9102 52.1201 32.6481 52.1201 32.124C52.1201 31.805 52.3822 31.486 52.9062 31.167C57.3268 28.4326 59.5371 24.3766 59.5371 18.999ZM79.7715 2.0459H98.1943C99.1742 2.0459 99.6641 2.39909 99.6641 3.10547C99.6641 3.42448 99.4362 4.00553 98.9805 4.84863C98.5247 5.66895 97.9779 6.36393 97.3398 6.93359C96.8158 7.41211 95.984 7.65137 94.8447 7.65137H75.2256C74.8838 7.65137 74.6331 7.63997 74.4736 7.61719C74.3141 7.57161 74.166 7.46908 74.0293 7.30957C73.9154 7.15007 73.8584 6.9222 73.8584 6.62598C73.8584 5.78288 74.5192 4.81445 75.8408 3.7207C77.1852 2.60417 78.4954 2.0459 79.7715 2.0459ZM73.8926 48.5303V31.6797C73.8926 30.8594 74.166 30.3239 74.7129 30.0732C75.2826 29.7998 76.1598 29.6631 77.3447 29.6631C78.6208 29.6631 79.5094 29.7998 80.0107 30.0732C80.512 30.3239 80.7627 30.8594 80.7627 31.6797V42.9932C80.7627 43.9274 81.2298 44.3945 82.1641 44.3945H98.8779C99.8577 44.3945 100.348 44.7477 100.348 45.4541C100.348 45.7731 100.12 46.3656 99.6641 47.2314C99.2083 48.0745 98.6729 48.7695 98.0576 49.3164C97.5335 49.7721 96.6904 50 95.5283 50H75.0889C74.2913 50 73.8926 49.5101 73.8926 48.5303ZM73.8926 26.2109V11.7529C73.8926 10.9326 74.166 10.3857 74.7129 10.1123C75.2826 9.83887 76.1598 9.70215 77.3447 9.70215C78.6208 9.70215 79.5094 9.83887 80.0107 10.1123C80.512 10.363 80.7627 10.9098 80.7627 11.7529V20.6055C80.7627 21.5397 81.2298 22.0068 82.1641 22.0068H96.0752C97.055 22.0068 97.5449 22.36 97.5449 23.0664C97.5449 23.3854 97.3171 23.9665 96.8613 24.8096C96.4056 25.6299 95.8701 26.3249 95.2549 26.8945C94.7308 27.373 93.8877 27.6123 92.7256 27.6123H75.2939C74.3597 27.6123 73.8926 27.1452 73.8926 26.2109ZM114.225 7.61719H108.688C107.799 7.61719 107.354 7.34375 107.354 6.79688C107.354 6.29557 107.537 5.78288 107.901 5.25879C108.266 4.71191 108.733 4.21061 109.303 3.75488C109.895 3.29915 110.545 2.91178 111.251 2.59277C111.98 2.27376 112.687 2.09147 113.37 2.0459L116.104 1.97754C119.728 1.97754 123.1 2.43327 126.222 3.34473C129.343 4.2334 132.055 5.65755 134.356 7.61719C136.658 9.57682 138.458 12.0947 139.757 15.1709C141.078 18.2471 141.739 21.9727 141.739 26.3477C141.739 28.4212 141.523 30.4492 141.09 32.4316C140.68 34.4141 140.076 36.2826 139.278 38.0371C138.481 39.7917 137.512 41.3981 136.373 42.8564C135.257 44.3148 134.003 45.5794 132.613 46.6504C131.223 47.6986 129.708 48.5189 128.067 49.1113C126.427 49.7038 124.706 50 122.906 50C122.109 50 121.71 49.738 121.71 49.2139C121.71 48.8037 121.961 48.4847 122.462 48.2568C124.399 47.3682 126.119 46.3314 127.623 45.1465C129.127 43.9616 130.392 42.5488 131.417 40.9082C132.465 39.2448 133.251 37.3079 133.775 35.0977C134.322 32.8874 134.596 30.3125 134.596 27.373C134.596 24.4564 134.243 21.8018 133.536 19.4092C132.853 17.0166 131.713 14.9544 130.118 13.2227C128.523 11.4909 126.427 10.1465 123.829 9.18945C121.231 8.20964 118.03 7.68555 114.225 7.61719ZM107.354 48.5303V11.7188C107.354 10.8984 107.628 10.3516 108.175 10.0781C108.744 9.80469 109.61 9.66797 110.772 9.66797C112.049 9.66797 112.937 9.80469 113.438 10.0781C113.963 10.3288 114.225 10.8757 114.225 11.7188V42.9932C114.225 43.9274 114.692 44.3945 115.626 44.3945H121.3C122.28 44.3945 122.77 44.6794 122.77 45.249C122.77 45.5908 122.416 46.0352 121.71 46.582C121.026 47.1289 120.172 47.653 119.146 48.1543C118.121 48.6556 116.959 49.0885 115.66 49.4531C114.361 49.8177 113.176 50 112.105 50H108.756C107.822 50 107.354 49.5101 107.354 48.5303Z" fill="url(#paint0_linear)" style="mix-blend-mode:hard-light"/>
<defs>
<linearGradient id="paint0_linear" x1="71.5" y1="-24" x2="71.5" y2="64" gradientUnits="userSpaceOnUse">
<stop offset="0.3375" stop-color="#FFF5FC"/>
<stop offset="1" stop-color="#FFADE8"/>
</linearGradient>
</defs>
</svg>
